<svg version="1.1" xmlns="http://www.w3.org/2000/svg" xmlns:xlink="http://www.w3.org/1999/xlink" width="960" height="960" style="width: 960px; height: 960px;"><defs/><g><g/><g transform="scale(1,1) translate(0.5,0.5)"><rect fill="#FFFFFF" stroke="none" x="0" y="0" width="960" height="960"/><rect fill="#ffffff" stroke="none" x="0" y="0" width="960" height="960"/><rect fill="#FFFFFF" stroke="none" x="76.12" y="28.200000000000045" width="853.88" height="861.52"/><rect fill="#ffffff" stroke="none" x="76.12" y="28.200000000000045" width="853.88" height="861.52"/><g><rect fill="none" stroke="#e5e5e5" x="76.12" y="28.200000000000045" width="853.88" height="861.52" stroke-miterlimit="10"/></g><g><g/><g/><g><path fill="none" stroke="none"/><rect fill="green" stroke="none" x="108.14050000000013" y="67.36000000000013" width="21.346999999999767" height="765.9944911018756" fill-opacity="0.5"/><path fill="none" stroke="black" paint-order="fill stroke markers" d=" M 108.14050000000013 67.36000000000013 L 129.4874999999999 67.36000000000013 L 129.4874999999999 833.3544911018757 L 108.14050000000013 833.3544911018757 L 108.14050000000013 67.36000000000013 Z" stroke-miterlimit="10" stroke-opacity="0.5"/><rect fill="green" stroke="none" x="193.5284999999992" y="240.12022029771015" width="21.34700000000157" height="564.819256501512" fill-opacity="0.5"/><path fill="none" stroke="black" paint-order="fill stroke markers" d=" M 193.5284999999992 240.12022029771015 L 214.87550000000078 240.12022029771015 L 214.87550000000078 804.9394767992221 L 193.5284999999992 804.9394767992221 L 193.5284999999992 240.12022029771015 Z" stroke-miterlimit="10" stroke-opacity="0.5"/><rect fill="green" stroke="none" x="278.916500000001" y="242.43469590794598" width="21.346999999997934" height="587.1061263695224" fill-opacity="0.5"/><path fill="none" stroke="black" paint-order="fill stroke markers" d=" M 278.916500000001 242.43469590794598 L 300.26349999999894 242.43469590794598 L 300.26349999999894 829.5408222774684 L 278.916500000001 829.5408222774684 L 278.916500000001 242.43469590794598 Z" stroke-miterlimit="10" stroke-opacity="0.5"/><rect fill="green" stroke="none" x="364.3044999999992" y="298.7063594407314" width="21.34700000000157" height="526.8050411588426" fill-opacity="0.5"/><path fill="none" stroke="black" paint-order="fill stroke markers" d=" M 364.3044999999992 298.7063594407314 L 385.6515000000008 298.7063594407314 L 385.6515000000008 825.511400599574 L 364.3044999999992 825.511400599574 L 364.3044999999992 298.7063594407314 Z" stroke-miterlimit="10" stroke-opacity="0.5"/><rect fill="green" stroke="none" x="449.6925000000029" y="257.5774624173207" width="21.346999999994296" height="567.7457853642229" fill-opacity="0.5"/><path fill="none" stroke="black" paint-order="fill stroke markers" d=" M 449.6925000000029 257.5774624173207 L 471.0394999999972 257.5774624173207 L 471.0394999999972 825.3232477815436 L 449.6925000000029 825.3232477815436 L 449.6925000000029 257.5774624173207 Z" stroke-miterlimit="10" stroke-opacity="0.5"/><rect fill="green" stroke="none" x="535.0804999999992" y="416.0272727928814" width="21.34700000000157" height="395.14601907348856" fill-opacity="0.5"/><path fill="none" stroke="black" paint-order="fill stroke markers" d=" M 535.0804999999992 416.0272727928814 L 556.4275000000008 416.0272727928814 L 556.4275000000008 811.1732918663699 L 535.0804999999992 811.1732918663699 L 535.0804999999992 416.0272727928814 Z" stroke-miterlimit="10" stroke-opacity="0.5"/><rect fill="green" stroke="none" x="620.4684999999993" y="303.6035369768772" width="21.34700000000157" height="515.9841513010895" fill-opacity="0.5"/><path fill="none" stroke="black" paint-order="fill stroke markers" d=" M 620.4684999999993 303.6035369768772 L 641.8155000000008 303.6035369768772 L 641.8155000000008 819.5876882779667 L 620.4684999999993 819.5876882779667 L 620.4684999999993 303.6035369768772 Z" stroke-miterlimit="10" stroke-opacity="0.5"/><rect fill="green" stroke="none" x="705.8564999999993" y="311.44032376722066" width="21.34700000000157" height="503.090636210208" fill-opacity="0.5"/><path fill="none" stroke="black" paint-order="fill stroke markers" d=" M 705.8564999999993 311.44032376722066 L 727.2035000000009 311.44032376722066 L 727.2035000000009 814.5309599774287 L 705.8564999999993 814.5309599774287 L 705.8564999999993 311.44032376722066 Z" stroke-miterlimit="10" stroke-opacity="0.5"/><rect fill="green" stroke="none" x="791.244500000003" y="415.42799341212935" width="21.346999999994296" height="435.1320065878706" fill-opacity="0.5"/><path fill="none" stroke="black" paint-order="fill stroke markers" d=" M 791.244500000003 415.42799341212935 L 812.5914999999973 415.42799341212935 L 812.5914999999973 850.56 L 791.244500000003 850.56 L 791.244500000003 415.42799341212935 Z" stroke-miterlimit="10" stroke-opacity="0.5"/><rect fill="green" stroke="none" x="876.632500000003" y="488.71243784622834" width="21.346999999994296" height="348.77764966232655" fill-opacity="0.5"/><path fill="none" stroke="black" paint-order="fill stroke markers" d=" M 876.632500000003 488.71243784622834 L 897.9794999999973 488.71243784622834 L 897.9794999999973 837.4900875085549 L 876.632500000003 837.4900875085549 L 876.632500000003 488.71243784622834 Z" stroke-miterlimit="10" stroke-opacity="0.5"/></g></g><g/><g><g><path fill="none" stroke="black" paint-order="fill stroke markers" d=" M 76 890 L 930 890" stroke-miterlimit="10"/><path fill="none" stroke="black" paint-order="fill stroke markers" d=" M 119 896 L 119 888" stroke-miterlimit="10"/><path fill="none" stroke="black" paint-order="fill stroke markers" d=" M 204 896 L 204 888" stroke-miterlimit="10"/><path fill="none" stroke="black" paint-order="fill stroke markers" d=" M 290 896 L 290 888" stroke-miterlimit="10"/><path fill="none" stroke="black" paint-order="fill stroke markers" d=" M 375 896 L 375 888" stroke-miterlimit="10"/><path fill="none" stroke="black" paint-order="fill stroke markers" d=" M 460 896 L 460 888" stroke-miterlimit="10"/><path fill="none" stroke="black" paint-order="fill stroke markers" d=" M 546 896 L 546 888" stroke-miterlimit="10"/><path fill="none" stroke="black" paint-order="fill stroke markers" d=" M 631 896 L 631 888" stroke-miterlimit="10"/><path fill="none" stroke="black" paint-order="fill stroke markers" d=" M 717 896 L 717 888" stroke-miterlimit="10"/><path fill="none" stroke="black" paint-order="fill stroke markers" d=" M 802 896 L 802 888" stroke-miterlimit="10"/><path fill="none" stroke="black" paint-order="fill stroke markers" d=" M 887 896 L 887 888" stroke-miterlimit="10"/><text fill="#444444" stroke="none" font-family="helvetica" font-size="8pt" font-style="normal" font-weight="normal" text-decoration="normal" x="119" y="901" text-anchor="middle" dominant-baseline="hanging">1</text><text fill="#444444" stroke="none" font-family="helvetica" font-size="8pt" font-style="normal" font-weight="normal" text-decoration="normal" x="204" y="901" text-anchor="middle" dominant-baseline="hanging">2</text><text fill="#444444" stroke="none" font-family="helvetica" font-size="8pt" font-style="normal" font-weight="normal" text-decoration="normal" x="290" y="901" text-anchor="middle" dominant-baseline="hanging">3</text><text fill="#444444" stroke="none" font-family="helvetica" font-size="8pt" font-style="normal" font-weight="normal" text-decoration="normal" x="375" y="901" text-anchor="middle" dominant-baseline="hanging">4</text><text fill="#444444" stroke="none" font-family="helvetica" font-size="8pt" font-style="normal" font-weight="normal" text-decoration="normal" x="460" y="901" text-anchor="middle" dominant-baseline="hanging">5</text><text fill="#444444" stroke="none" font-family="helvetica" font-size="8pt" font-style="normal" font-weight="normal" text-decoration="normal" x="546" y="901" text-anchor="middle" dominant-baseline="hanging">6</text><text fill="#444444" stroke="none" font-family="helvetica" font-size="8pt" font-style="normal" font-weight="normal" text-decoration="normal" x="631" y="901" text-anchor="middle" dominant-baseline="hanging">7</text><text fill="#444444" stroke="none" font-family="helvetica" font-size="8pt" font-style="normal" font-weight="normal" text-decoration="normal" x="717" y="901" text-anchor="middle" dominant-baseline="hanging">8</text><text fill="#444444" stroke="none" font-family="helvetica" font-size="8pt" font-style="normal" font-weight="normal" text-decoration="normal" x="802" y="901" text-anchor="middle" dominant-baseline="hanging">9</text><text fill="#444444" stroke="none" font-family="helvetica" font-size="8pt" font-style="normal" font-weight="normal" text-decoration="normal" x="887" y="901" text-anchor="middle" dominant-baseline="hanging">10</text><text fill="#444444" stroke="none" font-family="helvetica" font-size="24pt" font-style="normal" font-weight="bold" text-decoration="normal" x="503.06000000000006" y="918.6800000000001" text-anchor="middle" dominant-baseline="hanging">Chromosome</text></g><g><path fill="none" stroke="black" paint-order="fill stroke markers" d=" M 76 890 L 76 28" stroke-miterlimit="10"/><path fill="none" stroke="black" paint-order="fill stroke markers" d=" M 70 813 L 78 813" stroke-miterlimit="10"/><path fill="none" stroke="black" paint-order="fill stroke markers" d=" M 70 633 L 78 633" stroke-miterlimit="10"/><path fill="none" stroke="black" paint-order="fill stroke markers" d=" M 70 452 L 78 452" stroke-miterlimit="10"/><path fill="none" stroke="black" paint-order="fill stroke markers" d=" M 70 271 L 78 271" stroke-miterlimit="10"/><path fill="none" stroke="black" paint-order="fill stroke markers" d=" M 70 90 L 78 90" stroke-miterlimit="10"/><path fill="none" stroke="black" paint-order="fill stroke markers" d=" M 72 850 L 76 850" stroke-miterlimit="10"/><path fill="none" stroke="black" paint-order="fill stroke markers" d=" M 72 886 L 76 886" stroke-miterlimit="10"/><path fill="none" stroke="black" paint-order="fill stroke markers" d=" M 72 813 L 76 813" stroke-miterlimit="10"/><path fill="none" stroke="black" paint-order="fill stroke markers" d=" M 72 777 L 76 777" stroke-miterlimit="10"/><path fill="none" stroke="black" paint-order="fill stroke markers" d=" M 72 741 L 76 741" stroke-miterlimit="10"/><path fill="none" stroke="black" paint-order="fill stroke markers" d=" M 72 705 L 76 705" stroke-miterlimit="10"/><path fill="none" stroke="black" paint-order="fill stroke markers" d=" M 72 669 L 76 669" stroke-miterlimit="10"/><path fill="none" stroke="black" paint-order="fill stroke markers" d=" M 72 633 L 76 633" stroke-miterlimit="10"/><path fill="none" stroke="black" paint-order="fill stroke markers" d=" M 72 596 L 76 596" stroke-miterlimit="10"/><path fill="none" stroke="black" paint-order="fill stroke markers" d=" M 72 560 L 76 560" stroke-miterlimit="10"/><path fill="none" stroke="black" paint-order="fill stroke markers" d=" M 72 524 L 76 524" stroke-miterlimit="10"/><path fill="none" stroke="black" paint-order="fill stroke markers" d=" M 72 488 L 76 488" stroke-miterlimit="10"/><path fill="none" stroke="black" paint-order="fill stroke markers" d=" M 72 452 L 76 452" stroke-miterlimit="10"/><path fill="none" stroke="black" paint-order="fill stroke markers" d=" M 72 416 L 76 416" stroke-miterlimit="10"/><path fill="none" stroke="black" paint-order="fill stroke markers" d=" M 72 379 L 76 379" stroke-miterlimit="10"/><path fill="none" stroke="black" paint-order="fill stroke markers" d=" M 72 343 L 76 343" stroke-miterlimit="10"/><path fill="none" stroke="black" paint-order="fill stroke markers" d=" M 72 307 L 76 307" stroke-miterlimit="10"/><path fill="none" stroke="black" paint-order="fill stroke markers" d=" M 72 271 L 76 271" stroke-miterlimit="10"/><path fill="none" stroke="black" paint-order="fill stroke markers" d=" M 72 235 L 76 235" stroke-miterlimit="10"/><path fill="none" stroke="black" paint-order="fill stroke markers" d=" M 72 199 L 76 199" stroke-miterlimit="10"/><path fill="none" stroke="black" paint-order="fill stroke markers" d=" M 72 162 L 76 162" stroke-miterlimit="10"/><path fill="none" stroke="black" paint-order="fill stroke markers" d=" M 72 126 L 76 126" stroke-miterlimit="10"/><path fill="none" stroke="black" paint-order="fill stroke markers" d=" M 72 90 L 76 90" stroke-miterlimit="10"/><path fill="none" stroke="black" paint-order="fill stroke markers" d=" M 72 54 L 76 54" stroke-miterlimit="10"/><text fill="#444444" stroke="none" font-family="helvetica" font-size="8pt" font-style="normal" font-weight="normal" text-decoration="normal" x="65" y="813" text-anchor="end" dominant-baseline="central">0</text><text fill="#444444" stroke="none" font-family="helvetica" font-size="8pt" font-style="normal" font-weight="normal" text-decoration="normal" x="65" y="633" text-anchor="end" dominant-baseline="central">50</text><text fill="#444444" stroke="none" font-family="helvetica" font-size="8pt" font-style="normal" font-weight="normal" text-decoration="normal" x="65" y="452" text-anchor="end" dominant-baseline="central">100</text><text fill="#444444" stroke="none" font-family="helvetica" font-size="8pt" font-style="normal" font-weight="normal" text-decoration="normal" x="65" y="271" text-anchor="end" dominant-baseline="central">150</text><text fill="#444444" stroke="none" font-family="helvetica" font-size="8pt" font-style="normal" font-weight="normal" text-decoration="normal" x="65" y="90" text-anchor="end" dominant-baseline="central">200</text><g transform="translate(40.32000000000001,458.96000000000004) rotate(-90,0,0)"><text fill="#444444" stroke="none" font-family="helvetica" font-size="24pt" font-style="normal" font-weight="bold" text-decoration="normal" x="0" y="0" text-anchor="middle" dominant-baseline="alphabetic">cM</text><g transform="rotate(90,0,0) translate(-40.32000000000001,-458.96000000000004)"/></g></g><g fill="#444444"><path fill="" stroke="none" d=""/><g transform="translate(76.12,9)"><path fill="none" stroke="none"/><text fill="" stroke="none" font-family="helvetica" font-size="10pt" font-style="normal" font-weight="bold" text-decoration="normal" x="0" y="0" text-anchor="start" dominant-baseline="text-before-edge">Chromosome Ideogram Figure</text></g></g></g></g></g></svg>