<svg version="1.1" xmlns="http://www.w3.org/2000/svg" xmlns:xlink="http://www.w3.org/1999/xlink" width="600" height="600" style="width: 600px; height: 600px;"><defs/><g><g/><g transform="scale(1,1) translate(0.5,0.5)"><rect fill="#FFFFFF" stroke="none" x="0" y="0" width="600" height="600"/><rect fill="#ffffff" stroke="none" x="0" y="0" width="600" height="600"/><rect fill="#FFFFFF" stroke="none" x="48.34" y="29.200000000000045" width="521.66" height="526"/><rect fill="#E8DDCB" stroke="none" x="48.34" y="29.200000000000045" width="521.66" height="526"/><g><rect fill="none" stroke="#e5e5e5" x="48.34" y="29.200000000000045" width="521.66" height="526" stroke-miterlimit="10"/></g><g><g><path fill="none" stroke="#e5e5e5" paint-order="fill stroke markers" d=" M 110 555 L 110 29" stroke-miterlimit="10"/><path fill="none" stroke="#e5e5e5" paint-order="fill stroke markers" d=" M 183 555 L 183 29" stroke-miterlimit="10"/><path fill="none" stroke="#e5e5e5" paint-order="fill stroke markers" d=" M 256 555 L 256 29" stroke-miterlimit="10"/><path fill="none" stroke="#e5e5e5" paint-order="fill stroke markers" d=" M 328 555 L 328 29" stroke-miterlimit="10"/><path fill="none" stroke="#e5e5e5" paint-order="fill stroke markers" d=" M 401 555 L 401 29" stroke-miterlimit="10"/><path fill="none" stroke="#e5e5e5" paint-order="fill stroke markers" d=" M 474 555 L 474 29" stroke-miterlimit="10"/><path fill="none" stroke="#e5e5e5" paint-order="fill stroke markers" d=" M 546 555 L 546 29" stroke-miterlimit="10"/></g><g><path fill="none" stroke="#e5e5e5" paint-order="fill stroke markers" d=" M 48 531 L 570 531" stroke-miterlimit="10"/><path fill="none" stroke="#e5e5e5" paint-order="fill stroke markers" d=" M 48 428 L 570 428" stroke-miterlimit="10"/><path fill="none" stroke="#e5e5e5" paint-order="fill stroke markers" d=" M 48 325 L 570 325" stroke-miterlimit="10"/><path fill="none" stroke="#e5e5e5" paint-order="fill stroke markers" d=" M 48 221 L 570 221" stroke-miterlimit="10"/><path fill="none" stroke="#e5e5e5" paint-order="fill stroke markers" d=" M 48 118 L 570 118" stroke-miterlimit="10"/></g><g><path fill="none" stroke="none"/><rect fill="#036564" stroke="none" x="72.05181818181819" y="520.1704016913319" width="6.757765371938035" height="11.12050739957715"/><path fill="none" stroke="#033649" paint-order="fill stroke markers" d=" M 72.05181818181819 520.1704016913319 L 78.80958355375623 520.1704016913319 L 78.80958355375623 531.290909090909 L 72.05181818181819 531.290909090909 L 72.05181818181819 520.1704016913319 Z" stroke-miterlimit="10"/><rect fill="#036564" stroke="none" x="78.80958355375623" y="531.290909090909" width="6.757765371938007" height="0"/><path fill="none" stroke="#033649" paint-order="fill stroke markers" d=" M 78.80958355375623 531.290909090909 L 85.56734892569423 531.290909090909 L 85.56734892569423 531.290909090909 L 78.80958355375623 531.290909090909 L 78.80958355375623 531.290909090909 Z" stroke-miterlimit="10"/><rect fill="#036564" stroke="none" x="85.56734892569423" y="509.04989429175475" width="6.757765371938007" height="22.2410147991543"/><path fill="none" stroke="#033649" paint-order="fill stroke markers" d=" M 85.56734892569423 509.04989429175475 L 92.32511429763224 509.04989429175475 L 92.32511429763224 531.290909090909 L 85.56734892569423 531.290909090909 L 85.56734892569423 509.04989429175475 Z" stroke-miterlimit="10"/><rect fill="#036564" stroke="none" x="92.32511429763224" y="520.1704016913318" width="6.757765371938007" height="11.120507399577264"/><path fill="none" stroke="#033649" paint-order="fill stroke markers" d=" M 92.32511429763224 520.1704016913318 L 99.08287966957025 520.1704016913318 L 99.08287966957025 531.290909090909 L 92.32511429763224 531.290909090909 L 92.32511429763224 520.1704016913318 Z" stroke-miterlimit="10"/><rect fill="#036564" stroke="none" x="99.08287966957025" y="531.290909090909" width="6.757765371938035" height="0"/><path fill="none" stroke="#033649" paint-order="fill stroke markers" d=" M 99.08287966957025 531.290909090909 L 105.84064504150828 531.290909090909 L 105.84064504150828 531.290909090909 L 99.08287966957025 531.290909090909 L 99.08287966957025 531.290909090909 Z" stroke-miterlimit="10"/><rect fill="#036564" stroke="none" x="105.84064504150828" y="531.290909090909" width="6.757765371938035" height="0"/><path fill="none" stroke="#033649" paint-order="fill stroke markers" d=" M 105.84064504150828 531.290909090909 L 112.59841041344632 531.290909090909 L 112.59841041344632 531.290909090909 L 105.84064504150828 531.290909090909 L 105.84064504150828 531.290909090909 Z" stroke-miterlimit="10"/><rect fill="#036564" stroke="none" x="112.59841041344632" y="531.290909090909" width="6.757765371938007" height="0"/><path fill="none" stroke="#033649" paint-order="fill stroke markers" d=" M 112.59841041344632 531.290909090909 L 119.35617578538432 531.290909090909 L 119.35617578538432 531.290909090909 L 112.59841041344632 531.290909090909 L 112.59841041344632 531.290909090909 Z" stroke-miterlimit="10"/><rect fill="#036564" stroke="none" x="119.35617578538432" y="520.1704016913319" width="6.757765371938035" height="11.12050739957715"/><path fill="none" stroke="#033649" paint-order="fill stroke markers" d=" M 119.35617578538432 520.1704016913319 L 126.11394115732236 520.1704016913319 L 126.11394115732236 531.290909090909 L 119.35617578538432 531.290909090909 L 119.35617578538432 520.1704016913319 Z" stroke-miterlimit="10"/><rect fill="#036564" stroke="none" x="126.11394115732236" y="520.1704016913319" width="6.757765371938007" height="11.12050739957715"/><path fill="none" stroke="#033649" paint-order="fill stroke markers" d=" M 126.11394115732236 520.1704016913319 L 132.87170652926036 520.1704016913319 L 132.87170652926036 531.290909090909 L 126.11394115732236 531.290909090909 L 126.11394115732236 520.1704016913319 Z" stroke-miterlimit="10"/><rect fill="#036564" stroke="none" x="132.87170652926036" y="531.290909090909" width="6.757765371938007" height="0"/><path fill="none" stroke="#033649" paint-order="fill stroke markers" d=" M 132.87170652926036 531.290909090909 L 139.62947190119837 531.290909090909 L 139.62947190119837 531.290909090909 L 132.87170652926036 531.290909090909 L 132.87170652926036 531.290909090909 Z" stroke-miterlimit="10"/><rect fill="#036564" stroke="none" x="139.62947190119837" y="509.04989429175475" width="6.757765371938035" height="22.2410147991543"/><path fill="none" stroke="#033649" paint-order="fill stroke markers" d=" M 139.62947190119837 509.04989429175475 L 146.3872372731364 509.04989429175475 L 146.3872372731364 531.290909090909 L 139.62947190119837 531.290909090909 L 139.62947190119837 509.04989429175475 Z" stroke-miterlimit="10"/><rect fill="#036564" stroke="none" x="146.3872372731364" y="497.9293868921776" width="6.757765371938035" height="33.36152219873145"/><path fill="none" stroke="#033649" paint-order="fill stroke markers" d=" M 146.3872372731364 497.9293868921776 L 153.14500264507444 497.9293868921776 L 153.14500264507444 531.290909090909 L 146.3872372731364 531.290909090909 L 146.3872372731364 497.9293868921776 Z" stroke-miterlimit="10"/><rect fill="#036564" stroke="none" x="153.14500264507444" y="520.1704016913318" width="6.757765371938007" height="11.120507399577264"/><path fill="none" stroke="#033649" paint-order="fill stroke markers" d=" M 153.14500264507444 520.1704016913318 L 159.90276801701245 520.1704016913318 L 159.90276801701245 531.290909090909 L 153.14500264507444 531.290909090909 L 153.14500264507444 520.1704016913318 Z" stroke-miterlimit="10"/><rect fill="#036564" stroke="none" x="159.90276801701245" y="509.04989429175475" width="6.757765371938035" height="22.2410147991543"/><path fill="none" stroke="#033649" paint-order="fill stroke markers" d=" M 159.90276801701245 509.04989429175475 L 166.66053338895048 509.04989429175475 L 166.66053338895048 531.290909090909 L 159.90276801701245 531.290909090909 L 159.90276801701245 509.04989429175475 Z" stroke-miterlimit="10"/><rect fill="#036564" stroke="none" x="166.66053338895048" y="464.5678646934461" width="6.757765371938007" height="66.72304439746296"/><path fill="none" stroke="#033649" paint-order="fill stroke markers" d=" M 166.66053338895048 464.5678646934461 L 173.4182987608885 464.5678646934461 L 173.4182987608885 531.290909090909 L 166.66053338895048 531.290909090909 L 166.66053338895048 464.5678646934461 Z" stroke-miterlimit="10"/><rect fill="#036564" stroke="none" x="173.4182987608885" y="497.9293868921774" width="6.757765371938007" height="33.36152219873168"/><path fill="none" stroke="#033649" paint-order="fill stroke markers" d=" M 173.4182987608885 497.9293868921774 L 180.1760641328265 497.9293868921774 L 180.1760641328265 531.290909090909 L 173.4182987608885 531.290909090909 L 173.4182987608885 497.9293868921774 Z" stroke-miterlimit="10"/><rect fill="#036564" stroke="none" x="180.1760641328265" y="397.8448202959828" width="6.757765371938035" height="133.44608879492625"/><path fill="none" stroke="#033649" paint-order="fill stroke markers" d=" M 180.1760641328265 397.8448202959828 L 186.93382950476453 397.8448202959828 L 186.93382950476453 531.290909090909 L 180.1760641328265 531.290909090909 L 180.1760641328265 397.8448202959828 Z" stroke-miterlimit="10"/><rect fill="#036564" stroke="none" x="186.93382950476453" y="475.6883720930231" width="6.757765371938007" height="55.60253699788598"/><path fill="none" stroke="#033649" paint-order="fill stroke markers" d=" M 186.93382950476453 475.6883720930231 L 193.69159487670254 475.6883720930231 L 193.69159487670254 531.290909090909 L 186.93382950476453 531.290909090909 L 186.93382950476453 475.6883720930231 Z" stroke-miterlimit="10"/><rect fill="#036564" stroke="none" x="193.69159487670254" y="420.08583509513744" width="6.757765371938035" height="111.20507399577161"/><path fill="none" stroke="#033649" paint-order="fill stroke markers" d=" M 193.69159487670254 420.08583509513744 L 200.44936024864057 420.08583509513744 L 200.44936024864057 531.290909090909 L 193.69159487670254 531.290909090909 L 193.69159487670254 420.08583509513744 Z" stroke-miterlimit="10"/><rect fill="#036564" stroke="none" x="200.44936024864057" y="420.08583509513716" width="6.757765371938007" height="111.2050739957719"/><path fill="none" stroke="#033649" paint-order="fill stroke markers" d=" M 200.44936024864057 420.08583509513716 L 207.20712562057858 420.08583509513716 L 207.20712562057858 531.290909090909 L 200.44936024864057 531.290909090909 L 200.44936024864057 420.08583509513716 Z" stroke-miterlimit="10"/><rect fill="#036564" stroke="none" x="207.20712562057858" y="386.72431289640554" width="6.757765371938007" height="144.56659619450352"/><path fill="none" stroke="#033649" paint-order="fill stroke markers" d=" M 207.20712562057858 386.72431289640554 L 213.9648909925166 386.72431289640554 L 213.9648909925166 531.290909090909 L 207.20712562057858 531.290909090909 L 207.20712562057858 386.72431289640554 Z" stroke-miterlimit="10"/><rect fill="#036564" stroke="none" x="213.9648909925166" y="386.7243128964059" width="6.757765371938035" height="144.56659619450318"/><path fill="none" stroke="#033649" paint-order="fill stroke markers" d=" M 213.9648909925166 386.7243128964059 L 220.72265636445462 386.7243128964059 L 220.72265636445462 531.290909090909 L 213.9648909925166 531.290909090909 L 213.9648909925166 386.7243128964059 Z" stroke-miterlimit="10"/><rect fill="#036564" stroke="none" x="220.72265636445462" y="353.3627906976736" width="6.757765371938007" height="177.92811839323548"/><path fill="none" stroke="#033649" paint-order="fill stroke markers" d=" M 220.72265636445462 353.3627906976736 L 227.48042173639263 353.3627906976736 L 227.48042173639263 531.290909090909 L 220.72265636445462 531.290909090909 L 220.72265636445462 353.3627906976736 Z" stroke-miterlimit="10"/><rect fill="#036564" stroke="none" x="227.48042173639263" y="375.6038054968288" width="6.757765371938035" height="155.68710359408027"/><path fill="none" stroke="#033649" paint-order="fill stroke markers" d=" M 227.48042173639263 375.6038054968288 L 234.23818710833066 375.6038054968288 L 234.23818710833066 531.290909090909 L 227.48042173639263 531.290909090909 L 227.48042173639263 375.6038054968288 Z" stroke-miterlimit="10"/><rect fill="#036564" stroke="none" x="234.23818710833066" y="342.2422832980972" width="6.757765371938035" height="189.04862579281183"/><path fill="none" stroke="#033649" paint-order="fill stroke markers" d=" M 234.23818710833066 342.2422832980972 L 240.9959524802687 342.2422832980972 L 240.9959524802687 531.290909090909 L 234.23818710833066 531.290909090909 L 234.23818710833066 342.2422832980972 Z" stroke-miterlimit="10"/><rect fill="#036564" stroke="none" x="240.9959524802687" y="364.4832980972508" width="6.757765371938007" height="166.80761099365827"/><path fill="none" stroke="#033649" paint-order="fill stroke markers" d=" M 240.9959524802687 364.4832980972508 L 247.7537178522067 364.4832980972508 L 247.7537178522067 531.290909090909 L 240.9959524802687 531.290909090909 L 240.9959524802687 364.4832980972508 Z" stroke-miterlimit="10"/><rect fill="#036564" stroke="none" x="247.7537178522067" y="364.4832980972516" width="6.757765371938035" height="166.80761099365748"/><path fill="none" stroke="#033649" paint-order="fill stroke markers" d=" M 247.7537178522067 364.4832980972516 L 254.51148322414474 364.4832980972516 L 254.51148322414474 531.290909090909 L 247.7537178522067 531.290909090909 L 247.7537178522067 364.4832980972516 Z" stroke-miterlimit="10"/><rect fill="#036564" stroke="none" x="254.51148322414474" y="308.88076109936577" width="6.757765371938035" height="222.41014799154328"/><path fill="none" stroke="#033649" paint-order="fill stroke markers" d=" M 254.51148322414474 308.88076109936577 L 261.2692485960828 308.88076109936577 L 261.2692485960828 531.290909090909 L 254.51148322414474 531.290909090909 L 254.51148322414474 308.88076109936577 Z" stroke-miterlimit="10"/><rect fill="#036564" stroke="none" x="261.2692485960828" y="264.3987315010558" width="6.757765371937978" height="266.89217758985325"/><path fill="none" stroke="#033649" paint-order="fill stroke markers" d=" M 261.2692485960828 264.3987315010558 L 268.02701396802075 264.3987315010558 L 268.02701396802075 531.290909090909 L 261.2692485960828 531.290909090909 L 261.2692485960828 264.3987315010558 Z" stroke-miterlimit="10"/><rect fill="#036564" stroke="none" x="268.02701396802075" y="286.6397463002114" width="6.757765371938035" height="244.65116279069764"/><path fill="none" stroke="#033649" paint-order="fill stroke markers" d=" M 268.02701396802075 286.6397463002114 L 274.7847793399588 286.6397463002114 L 274.7847793399588 531.290909090909 L 268.02701396802075 531.290909090909 L 268.02701396802075 286.6397463002114 Z" stroke-miterlimit="10"/><rect fill="#036564" stroke="none" x="274.7847793399588" y="197.6756871035925" width="6.757765371937978" height="333.61522198731654"/><path fill="none" stroke="#033649" paint-order="fill stroke markers" d=" M 274.7847793399588 197.6756871035925 L 281.54254471189677 197.6756871035925 L 281.54254471189677 531.290909090909 L 274.7847793399588 531.290909090909 L 274.7847793399588 197.6756871035925 Z" stroke-miterlimit="10"/><rect fill="#036564" stroke="none" x="281.54254471189677" y="119.83213530655394" width="6.757765371938035" height="411.4587737843551"/><path fill="none" stroke="#033649" paint-order="fill stroke markers" d=" M 281.54254471189677 119.83213530655394 L 288.3003100838348 119.83213530655394 L 288.3003100838348 531.290909090909 L 281.54254471189677 531.290909090909 L 281.54254471189677 119.83213530655394 Z" stroke-miterlimit="10"/><rect fill="#036564" stroke="none" x="288.3003100838348" y="197.67568710359404" width="6.757765371938035" height="333.615221987315"/><path fill="none" stroke="#033649" paint-order="fill stroke markers" d=" M 288.3003100838348 197.67568710359404 L 295.05807545577284 197.67568710359404 L 295.05807545577284 531.290909090909 L 288.3003100838348 531.290909090909 L 288.3003100838348 197.67568710359404 Z" stroke-miterlimit="10"/><rect fill="#036564" stroke="none" x="295.05807545577284" y="64.22959830866591" width="6.757765371938035" height="467.06131078224314"/><path fill="none" stroke="#033649" paint-order="fill stroke markers" d=" M 295.05807545577284 64.22959830866591 L 301.8158408277109 64.22959830866591 L 301.8158408277109 531.290909090909 L 295.05807545577284 531.290909090909 L 295.05807545577284 64.22959830866591 Z" stroke-miterlimit="10"/><rect fill="#036564" stroke="none" x="301.8158408277109" y="197.67568710359404" width="6.757765371938035" height="333.615221987315"/><path fill="none" stroke="#033649" paint-order="fill stroke markers" d=" M 301.8158408277109 197.67568710359404 L 308.5736061996489 197.67568710359404 L 308.5736061996489 531.290909090909 L 301.8158408277109 531.290909090909 L 301.8158408277109 197.67568710359404 Z" stroke-miterlimit="10"/><rect fill="#036564" stroke="none" x="308.5736061996489" y="86.47061310782033" width="6.757765371937978" height="444.8202959830887"/><path fill="none" stroke="#033649" paint-order="fill stroke markers" d=" M 308.5736061996489 86.47061310782033 L 315.3313715715869 86.47061310782033 L 315.3313715715869 531.290909090909 L 308.5736061996489 531.290909090909 L 308.5736061996489 86.47061310782033 Z" stroke-miterlimit="10"/><rect fill="#036564" stroke="none" x="315.3313715715869" y="53.109090909090924" width="6.757765371938035" height="478.18181818181813"/><path fill="none" stroke="#033649" paint-order="fill stroke markers" d=" M 315.3313715715869 53.109090909090924 L 322.0891369435249 53.109090909090924 L 322.0891369435249 531.290909090909 L 315.3313715715869 531.290909090909 L 315.3313715715869 53.109090909090924 Z" stroke-miterlimit="10"/><rect fill="#036564" stroke="none" x="322.0891369435249" y="119.83213530655394" width="6.757765371938035" height="411.4587737843551"/><path fill="none" stroke="#033649" paint-order="fill stroke markers" d=" M 322.0891369435249 119.83213530655394 L 328.84690231546296 119.83213530655394 L 328.84690231546296 531.290909090909 L 322.0891369435249 531.290909090909 L 322.0891369435249 119.83213530655394 Z" stroke-miterlimit="10"/><rect fill="#036564" stroke="none" x="328.84690231546296" y="130.95264270612915" width="6.757765371937978" height="400.3382663847799"/><path fill="none" stroke="#033649" paint-order="fill stroke markers" d=" M 328.84690231546296 130.95264270612915 L 335.60466768740093 130.95264270612915 L 335.60466768740093 531.290909090909 L 328.84690231546296 531.290909090909 L 328.84690231546296 130.95264270612915 Z" stroke-miterlimit="10"/><rect fill="#036564" stroke="none" x="335.60466768740093" y="142.07315010570824" width="6.757765371938035" height="389.2177589852008"/><path fill="none" stroke="#033649" paint-order="fill stroke markers" d=" M 335.60466768740093 142.07315010570824 L 342.36243305933897 142.07315010570824 L 342.36243305933897 531.290909090909 L 335.60466768740093 531.290909090909 L 335.60466768740093 142.07315010570824 Z" stroke-miterlimit="10"/><rect fill="#036564" stroke="none" x="342.36243305933897" y="119.83213530655394" width="6.757765371938035" height="411.4587737843551"/><path fill="none" stroke="#033649" paint-order="fill stroke markers" d=" M 342.36243305933897 119.83213530655394 L 349.120198431277 119.83213530655394 L 349.120198431277 531.290909090909 L 342.36243305933897 531.290909090909 L 342.36243305933897 119.83213530655394 Z" stroke-miterlimit="10"/><rect fill="#036564" stroke="none" x="349.120198431277" y="142.07315010570636" width="6.757765371937978" height="389.2177589852027"/><path fill="none" stroke="#033649" paint-order="fill stroke markers" d=" M 349.120198431277 142.07315010570636 L 355.877963803215 142.07315010570636 L 355.877963803215 531.290909090909 L 349.120198431277 531.290909090909 L 349.120198431277 142.07315010570636 Z" stroke-miterlimit="10"/><rect fill="#036564" stroke="none" x="355.877963803215" y="186.55517970401695" width="6.757765371938035" height="344.7357293868921"/><path fill="none" stroke="#033649" paint-order="fill stroke markers" d=" M 355.877963803215 186.55517970401695 L 362.635729175153 186.55517970401695 L 362.635729175153 531.290909090909 L 355.877963803215 531.290909090909 L 355.877963803215 186.55517970401695 Z" stroke-miterlimit="10"/><rect fill="#036564" stroke="none" x="362.635729175153" y="197.67568710359404" width="6.757765371938035" height="333.615221987315"/><path fill="none" stroke="#033649" paint-order="fill stroke markers" d=" M 362.635729175153 197.67568710359404 L 369.39349454709105 197.67568710359404 L 369.39349454709105 531.290909090909 L 362.635729175153 531.290909090909 L 362.635729175153 197.67568710359404 Z" stroke-miterlimit="10"/><rect fill="#036564" stroke="none" x="369.39349454709105" y="186.5551797040153" width="6.757765371938035" height="344.73572938689375"/><path fill="none" stroke="#033649" paint-order="fill stroke markers" d=" M 369.39349454709105 186.5551797040153 L 376.1512599190291 186.5551797040153 L 376.1512599190291 531.290909090909 L 369.39349454709105 531.290909090909 L 369.39349454709105 186.5551797040153 Z" stroke-miterlimit="10"/><rect fill="#036564" stroke="none" x="376.1512599190291" y="253.2782241014786" width="6.757765371937978" height="278.01268498943045"/><path fill="none" stroke="#033649" paint-order="fill stroke markers" d=" M 376.1512599190291 253.2782241014786 L 382.90902529096707 253.2782241014786 L 382.90902529096707 531.290909090909 L 376.1512599190291 531.290909090909 L 376.1512599190291 253.2782241014786 Z" stroke-miterlimit="10"/><rect fill="#036564" stroke="none" x="382.90902529096707" y="253.27822410148121" width="6.757765371938092" height="278.01268498942784"/><path fill="none" stroke="#033649" paint-order="fill stroke markers" d=" M 382.90902529096707 253.27822410148121 L 389.66679066290516 253.27822410148121 L 389.66679066290516 531.290909090909 L 382.90902529096707 531.290909090909 L 382.90902529096707 253.27822410148121 Z" stroke-miterlimit="10"/><rect fill="#036564" stroke="none" x="389.66679066290516" y="231.03720930232413" width="6.757765371937978" height="300.2536997885849"/><path fill="none" stroke="#033649" paint-order="fill stroke markers" d=" M 389.66679066290516 231.03720930232413 L 396.42455603484314 231.03720930232413 L 396.42455603484314 531.290909090909 L 389.66679066290516 531.290909090909 L 389.66679066290516 231.03720930232413 Z" stroke-miterlimit="10"/><rect fill="#036564" stroke="none" x="396.42455603484314" y="186.5551797040153" width="6.757765371937978" height="344.73572938689375"/><path fill="none" stroke="#033649" paint-order="fill stroke markers" d=" M 396.42455603484314 186.5551797040153 L 403.1823214067811 186.5551797040153 L 403.1823214067811 531.290909090909 L 396.42455603484314 531.290909090909 L 396.42455603484314 186.5551797040153 Z" stroke-miterlimit="10"/><rect fill="#036564" stroke="none" x="403.1823214067811" y="242.15771670190418" width="6.757765371938092" height="289.1331923890049"/><path fill="none" stroke="#033649" paint-order="fill stroke markers" d=" M 403.1823214067811 242.15771670190418 L 409.9400867787192 242.15771670190418 L 409.9400867787192 531.290909090909 L 403.1823214067811 531.290909090909 L 403.1823214067811 242.15771670190418 Z" stroke-miterlimit="10"/><rect fill="#036564" stroke="none" x="409.9400867787192" y="342.24228329809637" width="6.757765371937978" height="189.0486257928127"/><path fill="none" stroke="#033649" paint-order="fill stroke markers" d=" M 409.9400867787192 342.24228329809637 L 416.6978521506572 342.24228329809637 L 416.6978521506572 531.290909090909 L 409.9400867787192 531.290909090909 L 409.9400867787192 342.24228329809637 Z" stroke-miterlimit="10"/><rect fill="#036564" stroke="none" x="416.6978521506572" y="375.603805496828" width="6.757765371937978" height="155.68710359408107"/><path fill="none" stroke="#033649" paint-order="fill stroke markers" d=" M 416.6978521506572 375.603805496828 L 423.45561752259516 375.603805496828 L 423.45561752259516 531.290909090909 L 416.6978521506572 531.290909090909 L 416.6978521506572 375.603805496828 Z" stroke-miterlimit="10"/><rect fill="#036564" stroke="none" x="423.45561752259516" y="420.08583509513795" width="6.757765371938092" height="111.2050739957711"/><path fill="none" stroke="#033649" paint-order="fill stroke markers" d=" M 423.45561752259516 420.08583509513795 L 430.21338289453325 420.08583509513795 L 430.21338289453325 531.290909090909 L 423.45561752259516 531.290909090909 L 423.45561752259516 420.08583509513795 Z" stroke-miterlimit="10"/><rect fill="#036564" stroke="none" x="430.21338289453325" y="420.0858350951369" width="6.757765371937978" height="111.20507399577218"/><path fill="none" stroke="#033649" paint-order="fill stroke markers" d=" M 430.21338289453325 420.0858350951369 L 436.97114826647123 420.0858350951369 L 436.97114826647123 531.290909090909 L 430.21338289453325 531.290909090909 L 430.21338289453325 420.0858350951369 Z" stroke-miterlimit="10"/><rect fill="#036564" stroke="none" x="436.97114826647123" y="431.2063424947141" width="6.757765371938035" height="100.08456659619497"/><path fill="none" stroke="#033649" paint-order="fill stroke markers" d=" M 436.97114826647123 431.2063424947141 L 443.72891363840927 431.2063424947141 L 443.72891363840927 531.290909090909 L 436.97114826647123 531.290909090909 L 436.97114826647123 431.2063424947141 Z" stroke-miterlimit="10"/><rect fill="#036564" stroke="none" x="443.72891363840927" y="442.3268498942922" width="6.757765371938035" height="88.96405919661686"/><path fill="none" stroke="#033649" paint-order="fill stroke markers" d=" M 443.72891363840927 442.3268498942922 L 450.4866790103473 442.3268498942922 L 450.4866790103473 531.290909090909 L 443.72891363840927 531.290909090909 L 443.72891363840927 442.3268498942922 Z" stroke-miterlimit="10"/><rect fill="#036564" stroke="none" x="450.4866790103473" y="420.0858350951369" width="6.757765371938035" height="111.20507399577218"/><path fill="none" stroke="#033649" paint-order="fill stroke markers" d=" M 450.4866790103473 420.0858350951369 L 457.24444438228534 420.0858350951369 L 457.24444438228534 531.290909090909 L 450.4866790103473 531.290909090909 L 450.4866790103473 420.0858350951369 Z" stroke-miterlimit="10"/><rect fill="#036564" stroke="none" x="457.24444438228534" y="386.72431289640525" width="6.757765371937978" height="144.5665961945038"/><path fill="none" stroke="#033649" paint-order="fill stroke markers" d=" M 457.24444438228534 386.72431289640525 L 464.0022097542233 386.72431289640525 L 464.0022097542233 531.290909090909 L 457.24444438228534 531.290909090909 L 457.24444438228534 386.72431289640525 Z" stroke-miterlimit="10"/><rect fill="#036564" stroke="none" x="464.0022097542233" y="486.8088794926002" width="6.757765371937978" height="44.48202959830883"/><path fill="none" stroke="#033649" paint-order="fill stroke markers" d=" M 464.0022097542233 486.8088794926002 L 470.7599751261613 486.8088794926002 L 470.7599751261613 531.290909090909 L 464.0022097542233 531.290909090909 L 464.0022097542233 486.8088794926002 Z" stroke-miterlimit="10"/><rect fill="#036564" stroke="none" x="470.7599751261613" y="520.170401691332" width="6.757765371938092" height="11.120507399577036"/><path fill="none" stroke="#033649" paint-order="fill stroke markers" d=" M 470.7599751261613 520.170401691332 L 477.5177404980994 520.170401691332 L 477.5177404980994 531.290909090909 L 470.7599751261613 531.290909090909 L 470.7599751261613 520.170401691332 Z" stroke-miterlimit="10"/><rect fill="#036564" stroke="none" x="477.5177404980994" y="509.04989429175464" width="6.757765371937978" height="22.241014799154414"/><path fill="none" stroke="#033649" paint-order="fill stroke markers" d=" M 477.5177404980994 509.04989429175464 L 484.27550587003736 509.04989429175464 L 484.27550587003736 531.290909090909 L 477.5177404980994 531.290909090909 L 477.5177404980994 509.04989429175464 Z" stroke-miterlimit="10"/><rect fill="#036564" stroke="none" x="484.27550587003736" y="486.8088794926002" width="6.757765371938035" height="44.48202959830883"/><path fill="none" stroke="#033649" paint-order="fill stroke markers" d=" M 484.27550587003736 486.8088794926002 L 491.0332712419754 486.8088794926002 L 491.0332712419754 531.290909090909 L 484.27550587003736 531.290909090909 L 484.27550587003736 486.8088794926002 Z" stroke-miterlimit="10"/><rect fill="#036564" stroke="none" x="491.0332712419754" y="486.8088794926006" width="6.757765371938035" height="44.48202959830843"/><path fill="none" stroke="#033649" paint-order="fill stroke markers" d=" M 491.0332712419754 486.8088794926006 L 497.79103661391343 486.8088794926006 L 497.79103661391343 531.290909090909 L 491.0332712419754 531.290909090909 L 491.0332712419754 486.8088794926006 Z" stroke-miterlimit="10"/><rect fill="#036564" stroke="none" x="497.79103661391343" y="509.04989429175464" width="6.757765371938035" height="22.241014799154414"/><path fill="none" stroke="#033649" paint-order="fill stroke markers" d=" M 497.79103661391343 509.04989429175464 L 504.54880198585147 509.04989429175464 L 504.54880198585147 531.290909090909 L 497.79103661391343 531.290909090909 L 497.79103661391343 509.04989429175464 Z" stroke-miterlimit="10"/><rect fill="#036564" stroke="none" x="504.54880198585147" y="509.04989429175464" width="6.757765371937978" height="22.241014799154414"/><path fill="none" stroke="#033649" paint-order="fill stroke markers" d=" M 504.54880198585147 509.04989429175464 L 511.30656735778945 509.04989429175464 L 511.30656735778945 531.290909090909 L 504.54880198585147 531.290909090909 L 504.54880198585147 509.04989429175464 Z" stroke-miterlimit="10"/><rect fill="#036564" stroke="none" x="511.30656735778945" y="531.290909090909" width="6.757765371938092" height="0"/><path fill="none" stroke="#033649" paint-order="fill stroke markers" d=" M 511.30656735778945 531.290909090909 L 518.0643327297275 531.290909090909 L 518.0643327297275 531.290909090909 L 511.30656735778945 531.290909090909 L 511.30656735778945 531.290909090909 Z" stroke-miterlimit="10"/><rect fill="#036564" stroke="none" x="518.0643327297275" y="509.04989429175464" width="6.757765371937921" height="22.241014799154414"/><path fill="none" stroke="#033649" paint-order="fill stroke markers" d=" M 518.0643327297275 509.04989429175464 L 524.8220981016655 509.04989429175464 L 524.8220981016655 531.290909090909 L 518.0643327297275 531.290909090909 L 518.0643327297275 509.04989429175464 Z" stroke-miterlimit="10"/><rect fill="#036564" stroke="none" x="524.8220981016655" y="531.290909090909" width="6.757765371938035" height="0"/><path fill="none" stroke="#033649" paint-order="fill stroke markers" d=" M 524.8220981016655 531.290909090909 L 531.5798634736035 531.290909090909 L 531.5798634736035 531.290909090909 L 524.8220981016655 531.290909090909 L 524.8220981016655 531.290909090909 Z" stroke-miterlimit="10"/><rect fill="#036564" stroke="none" x="531.5798634736035" y="531.290909090909" width="6.757765371938035" height="0"/><path fill="none" stroke="#033649" paint-order="fill stroke markers" d=" M 531.5798634736035 531.290909090909 L 538.3376288455415 531.290909090909 L 538.3376288455415 531.290909090909 L 531.5798634736035 531.290909090909 L 531.5798634736035 531.290909090909 Z" stroke-miterlimit="10"/><rect fill="#036564" stroke="none" x="538.3376288455415" y="520.1704016913318" width="6.757765371938035" height="11.120507399577264"/><path fill="none" stroke="#033649" paint-order="fill stroke markers" d=" M 538.3376288455415 520.1704016913318 L 545.0953942174796 520.1704016913318 L 545.0953942174796 531.290909090909 L 538.3376288455415 531.290909090909 L 538.3376288455415 520.1704016913318 Z" stroke-miterlimit="10"/></g><g><path fill="none" stroke="none"/><path fill="none" stroke="#D95B43" paint-order="fill stroke markers" d=" M 110.13689535840541 526.7092085291085 L 110.57348323273953 526.6259912941161 L 111.01007110707366 526.5414339146498 L 111.44665898140772 526.4555182544434 L 111.88324685574185 526.3682259971366 L 112.31983473007597 526.2795386456837 L 112.75642260441009 526.1894375217845 L 113.19301047874418 526.0979037653381 L 113.62959835307828 526.0049183339198 L 114.0661862274124 525.9104620022822 L 114.50277410174652 525.8145153618799 L 114.93936197608062 525.7170588204197 L 115.37594985041474 525.6180726014359 L 115.81253772474884 525.5175367438915 L 116.24912559908296 525.4154311018062 L 116.68571347341705 525.3117353439113 L 117.12230134775118 525.2064289533316 L 117.5588892220853 525.0994912272967 L 117.99547709641939 524.9909012768799 L 118.43206497075349 524.8806380267669 L 118.86865284508761 524.7686802150545 L 119.30524071942173 524.655006393079 L 119.74182859375586 524.5395949252768 L 120.17841646808992 524.4224239890746 L 120.61500434242404 524.3034715748144 L 121.05159221675817 524.1827154857086 L 121.48818009109229 524.0601333378304 L 121.92476796542641 523.9357025601362 L 122.36135583976048 523.8094003945243 L 122.7979437140946 523.6812038959279 L 123.23453158842872 523.5510899324422 L 123.67111946276285 523.4190351854909 L 124.10770733709694 523.2850161500262 L 124.54429521143106 523.1490091347681 L 124.98088308576516 523.0109902624814 L 125.41747096009928 522.8709354702904 L 125.85405883443337 522.7288205100339 L 126.2906467087675 522.5846209486585 L 126.72723458310162 522.4383121686537 L 127.16382245743571 522.2898693685268 L 127.60041033176981 522.1392675633191 L 128.03699820610393 521.9864815851658 L 128.47358608043805 521.8314860838964 L 128.91017395477218 521.6742555276791 L 129.34676182910627 521.51476420371 L 129.78334970344036 521.3529862189453 L 130.2199375777745 521.1888955008785 L 130.6565254521086 521.0224657983647 L 131.09311332644273 520.8536706824883 L 131.5297012007768 520.6824835474806 L 131.96628907511092 520.5088776116814 L 132.40287694944504 520.3328259185512 L 132.83946482377917 520.1543013377292 L 133.27605269811326 519.9732765661429 L 133.71264057244738 519.7897241291648 L 134.14922844678148 519.6036163818203 L 134.5858163211156 519.4149255100464 L 135.0224041954497 519.2236235320007 L 135.45899206978382 519.0296822994226 L 135.89557994411794 518.8330734990467 L 136.33216781845204 518.6337686540688 L 136.76875569278616 518.4317391256652 L 137.20534356712025 518.2269561145658 L 137.64193144145437 518.0193906626814 L 138.0785193157885 517.809013654786 L 138.5151071901226 517.5957958202542 L 138.9516950644567 517.3797077348551 L 139.3882829387908 517.160719822601 L 139.82487081312493 516.9388023576548 L 140.26145868745905 516.7139254662935 L 140.69804656179312 516.4860591289294 L 141.13463443612724 516.25517318219 L 141.57122231046137 516.0212373210568 L 142.0078101847955 515.7842211010625 L 142.4443980591296 515.5440939405479 L 142.88098593346368 515.30082512298 L 143.3175738077978 515.0543837993282 L 143.75416168213192 514.8047389905041 L 144.19074955646605 514.5518595898603 L 144.62733743080014 514.2957143657524 L 145.06392530513423 514.0362719641615 L 145.50051317946836 513.7735009113813 L 145.93710105380248 513.5073696167657 L 146.37368892813657 513.2378463755412 L 146.8102768024707 512.9648993716817 L 147.2468646768048 512.6884966808484 L 147.6834525511389 512.4086062733927 L 148.120040425473 512.1251960174237 L 148.55662829980713 511.8382336819416 L 148.99321617414125 511.54768694003457 L 149.42980404847535 511.2535233721427 L 149.86639192280944 510.95571046938574 L 150.30297979714356 510.6542156369586 L 150.7395676714777 510.3490061975914 L 151.1761555458118 510.0400493950767 L 151.61274342014588 509.72731239786344 L 152.04933129448 509.4107623027169 L 152.48591916881412 509.09036613844626 L 152.92250704314824 508.76609086969927 L 153.35909491748237 508.4379034008237 L 153.79568279181643 508.1057705797968 L 154.23227066615055 507.76965920222193 L 154.66885854048468 507.42953601539307 L 155.1054464148188 507.08536772242707 L 155.5420342891529 506.73712098646365 L 155.978622163487 506.3847624349335 L 156.4152100378211 506.028258663894 L 156.85179791215523 505.6675762424336 L 157.28838578648933 505.3026817171432 L 157.72497366082345 504.93354161665667 L 158.16156153515755 504.56012245625874 L 158.59814940949167 504.18239074256064 L 159.03473728382576 503.80031297824416 L 159.47132515815989 503.4138556668736 L 159.907913032494 503.02298531777456 L 160.3445009068281 502.6276684509817 L 160.7810887811622 502.2278716022527 L 161.21767665549632 501.8235613281508 L 161.65426452983044 501.4147042111934 L 162.09085240416456 501.0012668650685 L 162.52744027849863 500.58321593991775 L 162.96402815283275 500.16051812768546 L 163.40061602716688 499.7331401675352 L 163.837203901501 499.30104885133125 L 164.27379177583512 498.8642110291864 L 164.7103796501692 498.42259361507536 L 165.14696752450334 497.9761635925129 L 165.58355539883743 497.52488802029734 L 166.02014327317156 497.0687340383178 L 166.45673114750565 496.6076688734262 L 166.89331902183974 496.1416598453724 L 167.3299068961739 495.67067437280264 L 167.766494770508 495.1946799793212 L 168.20308264484208 494.71364429961346 L 168.6396705191762 494.2275350856314 L 169.07625839351033 493.7363202128403 L 169.51284626784445 493.23996768652586 L 169.94943414217852 492.73844564816164 L 170.38602201651264 492.2317223818359 L 170.82260989084676 491.7197663207377 L 171.2591977651809 491.20254605370087 L 171.695785639515 490.68003033180617 L 172.13237351384907 490.1521880750396 L 172.5689613881832 489.61898837900765 L 173.00554926251732 489.08040052170804 L 173.44213713685144 488.53639397035494 L 173.87872501118554 487.98693838825795 L 174.31531288551963 487.43200364175505 L 174.75190075985375 486.87155980719706 L 175.18848863418788 486.30557717798456 L 175.62507650852197 485.7340262716544 L 176.0616643828561 485.1568778370167 L 176.4982522571902 484.57410286134035 L 176.9348401315243 483.9856725775867 L 177.3714280058584 483.3915584716898 L 177.80801588019253 482.79173228988265 L 178.24460375452665 482.1861660460686 L 178.68119162886074 481.5748320292364 L 179.11777950319484 480.957702810918 L 179.55436737752896 480.3347512526882 L 179.99095525186308 479.7059505137048 L 180.4275431261972 479.0712740582883 L 180.8641310005313 478.43069566353984 L 181.3007188748654 477.78418942699614 L 181.73730674919952 477.1317297743205 L 182.17389462353364 476.47329146702845 L 182.61048249786776 475.80884961024674 L 183.04707037220186 475.13837966050426 L 183.48365824653595 474.4618574335545 L 183.92024612087008 473.77925911222616 L 184.3568339952042 473.09056125430357 L 184.7934218695383 472.3957408004326 L 185.23000974387242 471.69477508205193 L 185.6665976182065 470.9876418293497 L 186.10318549254063 470.2743191792405 L 186.53977336687475 469.55478568336514 L 186.97636124120885 468.8290203161092 L 187.41294911554297 468.0970024826394 L 187.84953698987707 467.35871202695716 L 188.2861248642112 466.614129239966 L 188.72271273854528 465.8632348675537 L 189.1593006128794 465.1060101186847 L 189.5958884872135 464.34243667350376 L 190.03247636154762 463.5724966914473 L 190.46906423588172 462.7961728193622 L 190.90565211021584 462.0134481996289 L 191.34223998454993 461.2243064782888 L 191.77882785888406 460.42873181317236 L 192.21541573321818 459.6267088820282 L 192.65200360755227 458.8182228906493 L 193.0885914818864 458.00325958099614 L 193.5251793562205 457.1818052393144 L 193.9617672305546 456.35384670424475 L 194.39835510488874 455.5193713749246 L 194.83494297922283 454.6783672190779 L 195.27153085355695 453.83082278109225 L 195.70811872789105 452.97672719008165 L 196.14470660222517 452.1160701679319 L 196.5812944765593 451.24884203732825 L 197.0178823508934 450.37503372976147 L 197.4544702252275 449.49463679351186 L 197.8910580995616 448.6076434016089 L 198.32764597389573 447.714046359764 L 198.76423384822982 446.81383911427474 L 199.20082172256394 445.90701575989874 L 199.63740959689804 444.9935710476946 L 200.07399747123216 444.0735003928287 L 200.51058534556626 443.1467998823442 L 200.94717321990038 442.21346628289257 L 201.3837610942345 441.27349704842277 L 201.8203489685686 440.32689032782855 L 202.25693684290272 439.3736449725499 L 202.6935247172368 438.4137605441276 L 203.13011259157093 437.4472373217077 L 203.56670046590503 436.4740763094953 L 204.00328834023915 435.49427924415374 L 204.43987621457327 434.5078486021486 L 204.87646408890737 433.5147876070331 L 205.3130519632415 432.5151002366732 L 205.7496398375756 431.50879123041074 L 206.1862277119097 430.495866096161 L 206.6228155862438 429.4763311174447 L 207.05940346057793 428.4501933603497 L 207.49599133491205 427.4174606804216 L 207.93257920924614 426.3781417294816 L 208.36916708358024 425.33224596236784 L 208.80575495791436 424.27978364359876 L 209.24234283224848 423.220765853957 L 209.6789307065826 422.15520449698965 L 210.1155185809167 421.0831123054253 L 210.5521064552508 420.00450284750275 L 210.98869432958492 418.91939053321164 L 211.42528220391904 417.8277906204413 L 211.86187007825313 416.7297192210355 L 212.29845795258726 415.62519330675275 L 212.73504582692135 414.51423071512704 L 213.17163370125547 413.39685015522883 L 213.60822157558957 412.27307121332433 L 214.0448094499237 411.1429143584285 L 214.4813973242578 410.0064009477528 L 214.9179851985919 408.8635532320425 L 215.35457307292603 407.7143943608031 L 215.79116094726012 406.55894838741386 L 216.22774882159425 405.39724027412433 L 216.66433669592834 404.22929589693445 L 217.10092457026246 403.0551420503535 L 217.5375124445966 401.87480645203715 L 217.9741003189307 400.6883177473009 L 218.41068819326478 399.495705513506 L 218.8472760675989 398.29700026431715 L 219.28386394193302 397.0922334538302 L 219.72045181626714 395.8814374805659 L 220.15703969060124 394.66464569133007 L 220.59362756493533 393.4418923849355 L 221.03021543926945 392.2132128157861 L 221.46680331360358 390.97864319731957 L 221.9033911879377 389.73822070530673 L 222.3399790622718 388.49198348100657 L 222.7765669366059 387.239970634174 L 223.21315481094 385.98222224591854 L 223.64974268527413 384.71877937141227 L 224.08633055960823 383.44968404244537 L 224.52291843394235 382.17497926982645 L 224.95950630827645 380.89470904562694 L 225.39609418261057 379.6089183452665 L 225.83268205694466 378.317653129439 L 226.26926993127879 377.0209603458758 L 226.70585780561288 375.718887930946 L 227.142445679947 374.41148481109053 L 227.57903355428112 373.09880090408967 L 228.01562142861525 371.78088712016125 L 228.4522093029493 370.4577953628887 L 228.88879717728344 369.1295785299763 L 229.32538505161756 367.79629051383176 L 229.76197292595168 366.4579862019723 L 230.1985608002858 365.11472147725453 L 230.63514867461987 363.766553217926 L 231.071736548954 362.41353929749664 L 231.50832442328812 361.055738584429 L 231.94491229762224 359.6932109416456 L 232.38150017195633 358.32601722585315 L 232.81808804629043 356.95421928668014 L 233.25467592062455 355.5778799656284 L 233.69126379495867 354.19706309483706 L 234.12785166929277 352.81183349565646 L 234.5644395436269 351.4222569770325 L 235.00102741796098 350.0284003336992 L 235.4376152922951 348.6303313441786 L 235.87420316662923 347.22811876858736 L 236.31079104096332 345.82183234624813 L 236.74737891529742 344.4115427931055 L 237.18396678963154 342.99732179894596 L 237.62055466396566 341.57924202441905 L 238.0571425382998 340.1573770978615 L 238.49373041263385 338.7318016119214 L 238.93031828696797 337.3025911199826 L 239.3669061613021 335.86982213238855 L 239.80349403563622 334.4335721124649 L 240.24008190997034 332.9939194723399 L 240.6766697843044 331.55094356856245 L 241.11325765863853 330.10472469751676 L 241.54984553297265 328.65534409063406 L 241.98643340730678 327.2028839093995 L 242.42302128164087 325.74742724015545 L 242.85960915597497 324.28905808869956 L 243.2961970303091 322.8278613746775 L 243.7327849046432 321.36392292577136 L 244.1693727789773 319.89732947168164 L 244.60596065331143 318.4281686379042 L 245.04254852764552 316.95652893930117 L 245.47913640197964 315.48249977346603 L 245.91572427631377 314.0061714138836 L 246.35231215064786 312.5276350028836 L 246.78890002498198 311.0469825443885 L 247.22548789931608 309.5643068964576 L 247.6620757736502 308.07970176362306 L 248.09866364798432 306.59326168902425 L 248.53525152231842 305.1050820463351 L 248.9718393966525 303.61525903148816 L 249.40842727098664 302.1238896541954 L 249.84501514532076 300.63107172926465 L 250.28160301965488 299.1369038677142 L 250.71819089398895 297.641485467685 L 251.15477876832307 296.1449167051516 L 251.5913666426572 294.64729852443145 L 252.02795451699131 293.1487326284958 L 252.4645423913254 291.64932146907995 L 252.9011302656595 290.1491682365962 L 253.33771813999363 288.64837684984894 L 253.77430601432775 287.1470519455537 L 254.21089388866184 285.6452988676604 L 254.64748176299597 284.14322365648337 L 255.08406963733006 282.6409330376373 L 255.52065751166418 281.1385344107816 L 255.9572453859983 279.63613583817494 L 256.3938332603324 278.13384603303973 L 256.8304211346665 276.6317743477389 L 257.2670090090006 275.1300307617663 L 257.70359688333474 273.6287258695528 L 258.14018475766886 272.12797086808814 L 258.576772632003 270.6278775443613 L 259.01336050633705 269.1285582626212 L 259.4499483806712 267.63012595145807 L 259.8865362550053 266.13269409070955 L 260.3231241293394 264.6363766981909 L 260.7597120036735 263.1412883162524 L 261.1962998780076 261.64754399816684 L 261.63288775234173 260.155259294346 L 262.06947562667585 258.66455023839285 L 262.50606350101 257.17553333298645 L 262.9426513753441 255.6883255356056 L 263.37923924967816 254.20304424409187 L 263.8158271240123 252.7198072820533 L 264.2524149983464 251.23873288411409 L 264.6890028726805 249.75993968100897 L 265.1255907470146 248.2835466845275 L 265.5621786213487 246.8096732723091 L 265.99876649568284 245.33843917249192 L 266.43535437001697 243.86996444821898 L 266.87194224435103 242.40436948200204 L 267.30853011868516 240.94177495994808 L 267.7451179930193 239.48230185584987 L 268.18170586735334 238.02607141514318 L 268.61829374168747 236.57320513873537 L 269.0548816160216 235.1238247667049 L 269.4914694903557 233.6780522618783 L 269.92805736468983 232.23600979328432 L 270.36464523902396 230.79781971949103 L 270.801233113358 229.3636045718264 L 271.23782098769215 227.93348703748802 L 271.67440886202627 226.50758994254238 L 272.1109967363604 225.0860362348189 L 272.54758461069446 223.66894896670124 L 272.9841724850286 222.25645127781894 L 273.4207603593627 220.84866637764293 L 273.8573482336968 219.44571752798845 L 274.29393610803095 218.047728025428 L 274.730523982365 216.6548211836186 L 275.16711185669914 215.2671203155458 L 275.60369973103326 213.88474871569002 L 276.0402876053674 212.5078296421151 L 276.4768754797015 211.13648629848683 L 276.91346335403557 209.77084181602157 L 277.3500512283697 208.41101923537036 L 277.7866391027038 207.05714148844243 L 278.22322697703794 205.70933138017023 L 278.65981485137206 204.3677115702211 L 279.0964027257061 203.03240455465897 L 279.53299060004025 201.7035326475592 L 279.9695784743744 200.38121796258145 L 280.4061663487085 199.06558239450368 L 280.8427542230426 197.75674760072098 L 281.2793420973767 196.45483498271398 L 281.7159299717108 195.15996566748908 L 282.15251784604493 193.87226048899726 L 282.58910572037905 192.59183996953192 L 283.0256935947132 191.3188243011125 L 283.46228146904724 190.0533333268562 L 283.89886934338136 188.79548652234286 L 284.3354572177155 187.54540297697616 L 284.77204509204955 186.30320137534608 L 285.2086329663837 185.06899997859517 L 285.6452208407178 183.8429166057951 L 286.0818087150519 182.62506861533438 L 286.51839658938604 181.41557288632475 L 286.95498446372017 180.21454580002768 L 287.39157233805423 179.02210322130594 L 287.82816021238835 177.83836048010528 L 288.2647480867225 176.66343235296864 L 288.70133596105654 175.49743304458826 L 289.13792383539067 174.34047616939984 L 289.5745117097248 173.19267473322157 L 290.0110995840589 172.05414111494412 L 290.44768745839303 170.92498704827375 L 290.8842753327271 169.8053236035338 L 291.3208632070612 168.69526116952937 L 291.75745108139535 167.59490943547706 L 292.19403895572947 166.50437737300643 L 292.63062683006353 165.42377321823523 L 293.06721470439766 164.3532044539238 L 293.5038025787318 163.29277779171287 L 293.9403904530659 162.24259915444736 L 294.3769783274 161.2027736585921 L 294.8135662017341 160.17340559674187 L 295.2501540760682 159.15459842023142 L 295.68674195040234 158.14645472184873 L 296.12332982473646 157.1490762186544 L 296.5599176990706 156.1625637349141 L 296.99650557340465 155.18701718514512 L 297.43309344773877 154.22253555728196 L 297.8696813220729 153.26921689596668 L 298.306269196407 152.3271582859648 L 298.74285707074114 151.39645583571343 L 299.1794449450752 150.4772046610036 L 299.6160328194093 149.5694988688021 L 300.05262069374345 148.67343154121573 L 300.4892085680776 147.78909471960213 L 300.9257964424117 146.91657938883122 L 301.36238431674576 146.0559754617003 L 301.7989721910799 145.207371763507 L 302.235560065414 144.37085601678433 L 302.67214793974813 143.54651482620068 L 303.10873581408225 142.734433663628 L 303.5453236884163 141.93469685338357 L 303.98191156275044 141.14738755764677 L 304.41849943708456 140.3725877620559 L 304.8550873114187 139.6103782614884 L 305.29167518575275 138.8608386460262 L 305.7282630600869 138.12404728711255 L 306.164850934421 137.40008132390125 L 306.6014388087551 136.6890166498024 L 307.03802668308924 135.99092789922844 L 307.4746145574233 135.30588843454302 L 307.91120243175743 134.63397033321604 L 308.34779030609155 133.97524437518888 L 308.7843781804256 133.32978003045082 L 309.22096605475974 132.69764544683272 L 309.65755392909387 132.07890743801767 L 310.094141803428 131.4736314717748 L 310.5307296777621 130.88188165841603 L 310.9673175520962 130.30372073948092 L 311.4039054264303 129.73921007665206 L 311.8404933007644 129.18840964090185 L 312.27708117509854 128.65137800187676 L 312.7136690494326 128.12817231751757 L 313.15025692376673 127.61884832392246 L 313.58684479810086 127.12346032545173 L 314.023432672435 126.64206118507911 L 314.4600205467691 126.17470231499078 L 314.89660842110317 125.72143366743518 L 315.3331962954373 125.28230372582499 L 315.7697841697714 124.85735949609477 L 316.20637204410554 124.44664649831532 L 316.64295991843966 124.0502087585669 L 317.0795477927737 123.66808880107442 L 317.51613566710785 123.30032764060513 L 317.95272354144197 122.94696477513213 L 318.3893114157761 122.60803817876399 L 318.8258992901102 122.28358429494364 L 319.2624871644443 121.9736380299176 L 319.6990750387784 121.67823274647714 L 320.1356629131125 121.397400257973 L 320.57225078744665 121.13117082260544 L 321.00883866178077 120.87957313799086 L 321.44542653611484 120.64263433600587 L 321.88201441044896 120.42037997791124 L 322.3186022847831 120.21283404975617 L 322.7551901591172 120.02001895806342 L 323.1917780334513 119.84195552579837 L 323.6283659077854 119.6786629886206 L 324.0649537821195 119.53015899142093 L 324.50154165645364 119.39645958514365 L 324.93812953078776 119.2775792238952 L 325.3747174051219 119.17353076233962 L 325.81130527945595 119.08432545338223 L 326.2478931537901 119.00997294614098 L 326.6844810281242 118.95048128420729 L 327.1210689024583 118.90585690419545 L 327.5576567767924 118.87610463458225 L 327.9942446511265 118.86122769483597 L 328.43083252546063 118.86122769483597 L 328.86742039979475 118.87610463458225 L 329.3040082741288 118.90585690419545 L 329.74059614846294 118.95048128420729 L 330.17718402279706 119.00997294614098 L 330.6137718971312 119.08432545338223 L 331.05035977146525 119.17353076233962 L 331.4869476457994 119.2775792238952 L 331.9235355201335 119.39645958514365 L 332.3601233944676 119.53015899142093 L 332.7967112688017 119.6786629886206 L 333.2332991431358 119.84195552579837 L 333.66988701746993 120.02001895806342 L 334.10647489180406 120.21283404975617 L 334.5430627661382 120.42037997791124 L 334.97965064047224 120.64263433600581 L 335.41623851480637 120.87957313799086 L 335.8528263891405 121.13117082260544 L 336.2894142634746 121.397400257973 L 336.72600213780873 121.67823274647714 L 337.1625900121428 121.9736380299176 L 337.5991778864769 122.28358429494364 L 338.03576576081105 122.60803817876399 L 338.47235363514517 122.94696477513213 L 338.9089415094793 123.30032764060513 L 339.34552938381336 123.66808880107436 L 339.7821172581475 124.0502087585669 L 340.2187051324816 124.44664649831532 L 340.6552930068157 124.85735949609477 L 341.09188088114985 125.28230372582499 L 341.5284687554839 125.72143366743512 L 341.96505662981804 126.17470231499078 L 342.40164450415216 126.64206118507911 L 342.8382323784863 127.12346032545173 L 343.2748202528204 127.61884832392246 L 343.7114081271545 128.12817231751757 L 344.1479960014886 128.65137800187676 L 344.5845838758227 129.18840964090185 L 345.02117175015684 129.73921007665206 L 345.45775962449096 130.30372073948092 L 345.894347498825 130.88188165841603 L 346.33093537315915 131.4736314717748 L 346.7675232474933 132.07890743801767 L 347.2041111218274 132.69764544683272 L 347.6406989961615 133.32978003045082 L 348.0772868704956 133.97524437518888 L 348.5138747448297 134.63397033321604 L 348.95046261916383 135.30588843454302 L 349.3870504934979 135.99092789922844 L 349.823638367832 136.6890166498024 L 350.26022624216614 137.40008132390125 L 350.69681411650026 138.1240472871125 L 351.1334019908344 138.8608386460262 L 351.56998986516845 139.6103782614884 L 352.0065777395026 140.3725877620559 L 352.4431656138367 141.14738755764677 L 352.87975348817076 141.9346968533835 L 353.3163413625049 142.734433663628 L 353.752929236839 143.54651482620068 L 354.18951711117313 144.37085601678433 L 354.62610498550725 145.207371763507 L 355.0626928598413 146.0559754617002 L 355.49928073417544 146.91657938883122 L 355.93586860850957 147.78909471960213 L 356.3724564828437 148.67343154121573 L 356.8090443571778 149.5694988688021 L 357.2456322315119 150.47720466100355 L 357.682220105846 151.39645583571343 L 358.1188079801801 152.3271582859648 L 358.55539585451425 153.26921689596668 L 358.99198372884837 154.22253555728196 L 359.42857160318243 155.18701718514507 L 359.86515947751656 156.1625637349141 L 360.3017473518507 157.1490762186544 L 360.7383352261848 158.14645472184873 L 361.1749231005189 159.15459842023142 L 361.61151097485305 160.17340559674187 L 362.0480988491871 161.2027736585921 L 362.48468672352124 162.24259915444736 L 362.92127459785536 163.29277779171287 L 363.3578624721895 164.3532044539238 L 363.7944503465236 165.42377321823523 L 364.23103822085767 166.50437737300643 L 364.6676260951918 167.59490943547706 L 365.1042139695259 168.69526116952937 L 365.54080184386004 169.8053236035338 L 365.9773897181941 170.92498704827375 L 366.4139775925282 172.05414111494412 L 366.85056546686235 173.19267473322157 L 367.2871533411965 174.34047616939984 L 367.7237412155306 175.49743304458826 L 368.16032908986466 176.66343235296864 L 368.5969169641988 177.83836048010528 L 369.0335048385329 179.02210322130594 L 369.470092712867 180.21454580002768 L 369.9066805872011 181.41557288632475 L 370.3432684615352 182.62506861533438 L 370.77985633586934 183.84291660579498 L 371.21644421020346 185.06899997859517 L 371.6530320845376 186.30320137534608 L 372.08961995887165 187.54540297697616 L 372.5262078332058 188.79548652234286 L 372.96279570753984 190.05333332685615 L 373.39938358187396 191.3188243011125 L 373.8359714562081 192.59183996953192 L 374.2725593305422 193.87226048899726 L 374.70914720487633 195.15996566748908 L 375.14573507921045 196.45483498271386 L 375.5823229535445 197.75674760072098 L 376.01891082787864 199.06558239450368 L 376.45549870221276 200.38121796258145 L 376.8920865765469 201.7035326475592 L 377.32867445088095 203.03240455465885 L 377.7652623252151 204.3677115702211 L 378.2018501995492 205.70933138017023 L 378.6384380738833 207.05714148844243 L 379.07502594821744 208.41101923537036 L 379.5116138225515 209.77084181602146 L 379.94820169688563 211.13648629848683 L 380.38478957121976 212.5078296421151 L 380.8213774455539 213.88474871569002 L 381.257965319888 215.2671203155458 L 381.6945531942221 216.6548211836186 L 382.1311410685562 218.047728025428 L 382.5677289428903 219.44571752798845 L 383.00431681722443 220.84866637764293 L 383.44090469155856 222.25645127781894 L 383.8774925658927 223.66894896670124 L 384.31408044022675 225.0860362348189 L 384.75066831456087 226.50758994254238 L 385.187256188895 227.93348703748802 L 385.6238440632291 229.3636045718264 L 386.0604319375632 230.79781971949103 L 386.4970198118973 232.23600979328432 L 386.9336076862314 233.6780522618783 L 387.37019556056555 235.1238247667049 L 387.80678343489967 236.57320513873537 L 388.2433713092338 238.02607141514318 L 388.67995918356786 239.48230185584976 L 389.116547057902 240.94177495994808 L 389.5531349322361 242.40436948200204 L 389.98972280657017 243.86996444821898 L 390.4263106809043 245.33843917249192 L 390.8628985552384 246.809673272309 L 391.29948642957254 248.2835466845275 L 391.73607430390666 249.75993968100897 L 392.1726621782407 251.23873288411409 L 392.60925005257485 252.7198072820533 L 393.0458379269089 254.20304424409176 L 393.48242580124304 255.6883255356056 L 393.91901367557716 257.17553333298645 L 394.3556015499113 258.66455023839285 L 394.7921894242454 260.155259294346 L 395.22877729857953 261.6475439981667 L 395.66536517291365 263.1412883162524 L 396.1019530472477 264.6363766981909 L 396.53854092158184 266.13269409070955 L 396.97512879591596 267.63012595145807 L 397.41171667025003 269.1285582626211 L 397.84830454458415 270.6278775443613 L 398.2848924189183 272.12797086808814 L 398.7214802932524 273.6287258695528 L 399.1580681675865 275.1300307617663 L 399.59465604192064 276.6317743477389 L 400.0312439162547 278.13384603303973 L 400.46783179058883 279.63613583817494 L 400.90441966492295 281.1385344107816 L 401.341007539257 282.6409330376371 L 401.7775954135912 284.1432236564834 L 402.21418328792527 285.6452988676603 L 402.6507711622594 287.1470519455537 L 403.0873590365935 288.64837684984894 L 403.5239469109276 290.1491682365961 L 403.96053478526176 291.64932146907995 L 404.3971226595958 293.14873262849574 L 404.83371053393 294.64729852443156 L 405.27029840826407 296.1449167051516 L 405.70688628259813 297.64148546768496 L 406.14347415693226 299.1369038677142 L 406.5800620312664 300.6310717292646 L 407.0166499056005 302.12388965419547 L 407.4532377799346 303.61525903148816 L 407.8898256542687 305.10508204633504 L 408.32641352860287 306.5932616890243 L 408.76300140293694 308.079701763623 L 409.19958927727106 309.5643068964576 L 409.6361771516051 311.0469825443885 L 410.07276502593925 312.5276350028834 L 410.50935290027337 314.0061714138837 L 410.9459407746075 315.482499773466 L 411.3825286489416 316.9565289393012 L 411.81911652327574 318.4281686379042 L 412.2557043976098 319.89732947168153 L 412.6922922719439 321.36392292577136 L 413.12888014627805 322.82786137467747 L 413.5654680206122 324.2890580886996 L 414.00205589494624 325.74742724015545 L 414.43864376928036 327.20288390939936 L 414.8752316436145 328.65534409063406 L 415.3118195179486 330.1047246975167 L 415.74840739228273 331.5509435685625 L 416.1849952666168 332.9939194723399 L 416.6215831409509 334.4335721124648 L 417.05817101528504 335.86982213238855 L 417.4947588896191 337.3025911199825 L 417.9313467639533 338.73180161192147 L 418.36793463828735 340.1573770978615 L 418.8045225126215 341.57924202441893 L 419.2411103869556 342.99732179894596 L 419.67769826128966 344.4115427931055 L 420.11428613562384 345.8218323462482 L 420.5508740099579 347.22811876858736 L 420.987461884292 348.6303313441785 L 421.42404975862615 350.0284003336992 L 421.8606376329602 351.4222569770324 L 422.2972255072944 352.81183349565646 L 422.73381338162847 354.19706309483706 L 423.1704012559626 355.5778799656283 L 423.6069891302967 356.95421928668014 L 424.0435770046308 358.3260172258531 L 424.48016487896496 359.69321094164565 L 424.916752753299 361.0557385844289 L 425.3533406276331 362.4135392974966 L 425.78992850196727 363.766553217926 L 426.22651637630133 365.1147214772545 L 426.66310425063546 366.4579862019723 L 427.0996921249696 367.7962905138317 L 427.5362799993037 369.1295785299764 L 427.9728678736378 370.4577953628887 L 428.4094557479719 371.7808871201612 L 428.84604362230607 373.0988009040897 L 429.28263149664014 374.4114848110905 L 429.71921937097426 375.7188879309461 L 430.1558072453083 377.0209603458758 L 430.59239511964245 378.3176531294389 L 431.02898299397657 379.60891834526655 L 431.4655708683107 380.8947090456268 L 431.9021587426448 382.17497926982657 L 432.33874661697894 383.44968404244537 L 432.775334491313 384.71877937141215 L 433.2119223656471 385.98222224591854 L 433.6485102399812 387.23997063417397 L 434.0850981143154 388.4919834810067 L 434.52168598864944 389.73822070530673 L 434.95827386298356 390.9786431973195 L 435.3948617373177 392.21321281578616 L 435.8314496116518 393.4418923849355 L 436.26803748598593 394.6646456913301 L 436.70462536032 395.8814374805659 L 437.14121323465406 397.0922334538301 L 437.57780110898824 398.2970002643172 L 438.0143889833223 399.4957055135059 L 438.4509768576565 400.688317747301 L 438.88756473199055 401.87480645203715 L 439.3241526063247 403.0551420503534 L 439.7607404806588 404.2292958969345 L 440.19732835499286 405.3972402741243 L 440.63391622932704 406.5589483874139 L 441.0705041036611 407.7143943608031 L 441.5070919779952 408.86355323204236 L 441.94367985232935 410.00640094775287 L 442.3802677266634 411.14291435842847 L 442.8168556009976 412.27307121332433 L 443.25344347533166 413.39685015522883 L 443.69003134966573 414.5142307151269 L 444.1266192239999 415.6251933067528 L 444.563207098334 416.72971922103545 L 444.99979497266816 417.8277906204413 L 445.4363828470022 418.91939053321164 L 445.8729707213363 420.00450284750264 L 446.30955859567047 421.0831123054253 L 446.74614647000453 422.1552044969896 L 447.18273434433866 423.220765853957 L 447.6193222186728 424.27978364359876 L 448.05591009300684 425.3322459623678 L 448.492497967341 426.3781417294816 L 448.9290858416751 427.4174606804216 L 449.36567371600927 428.4501933603497 L 449.80226159034333 429.4763311174447 L 450.2388494646774 430.49586609616097 L 450.6754373390115 431.50879123041074 L 451.11202521334565 432.51510023667316 L 451.54861308767977 433.51478760703316 L 451.9852009620139 434.5078486021486 L 452.42178883634796 435.49427924415363 L 452.85837671068214 436.4740763094953 L 453.2949645850162 437.44723732170763 L 453.7315524593503 438.4137605441276 L 454.1681403336844 439.3736449725499 L 454.6047282080185 440.3268903278285 L 455.04131608235264 441.27349704842277 L 455.47790395668676 442.2134662828925 L 455.9144918310209 443.1467998823443 L 456.351079705355 444.0735003928287 L 456.787667579689 444.99357104769456 L 457.2242554540232 445.90701575989874 L 457.66084332835726 446.8138391142747 L 458.09743120269144 447.71404635976404 L 458.5340190770255 448.6076434016089 L 458.9706069513596 449.4946367935118 L 459.40719482569375 450.37503372976147 L 459.8437827000279 451.24884203732825 L 460.280370574362 452.116070167932 L 460.71695844869606 452.9767271900816 L 461.1535463230301 453.8308227810922 L 461.5901341973643 454.6783672190779 L 462.0267220716984 455.5193713749246 L 462.46330994603255 456.3538467042448 L 462.8998978203666 457.1818052393144 L 463.33648569470074 458.0032595809961 L 463.77307356903486 458.8182228906493 L 464.209661443369 459.62670888202814 L 464.6462493177031 460.42873181317236 L 465.0828371920372 461.2243064782887 L 465.51942506637135 462.01344819962895 L 465.9560129407054 462.7961728193622 L 466.3926008150395 463.5724966914473 L 466.8291886893736 464.3424366735038 L 467.26577656370773 465.1060101186847 L 467.70236443804185 465.86323486755373 L 468.138952312376 466.614129239966 L 468.57554018671004 467.35871202695705 L 469.0121280610442 468.0970024826395 L 469.4487159353783 468.82902031610917 L 469.88530380971247 469.5547856833652 L 470.3218916840465 470.2743191792405 L 470.7584795583806 470.9876418293496 L 471.1950674327147 471.694775082052 L 471.63165530704885 472.3957408004325 L 472.06824318138297 473.0905612543036 L 472.5048310557171 473.77925911222616 L 472.94141893005116 474.4618574335544 L 473.37800680438534 475.1383796605043 L 473.81459467871935 475.80884961024674 L 474.2511825530535 476.4732914670285 L 474.6877704273876 477.1317297743205 L 475.1243583017217 477.78418942699614 L 475.56094617605584 478.43069566353984 L 475.99753405038996 479.0712740582883 L 476.4341219247241 479.70595051370486 L 476.8707097990582 480.3347512526882 L 477.3072976733922 480.957702810918 L 477.7438855477264 481.5748320292364 L 478.18047342206046 482.1861660460686 L 478.61706129639464 482.7917322898827 L 479.0536491707287 483.3915584716898 L 479.4902370450628 483.9856725775867 L 479.92682491939695 484.57410286134035 L 480.3634127937311 485.1568778370167 L 480.8000006680652 485.73402627165444 L 481.23658854239926 486.30557717798456 L 481.6731764167333 486.87155980719706 L 482.1097642910675 487.43200364175505 L 482.5463521654016 487.98693838825795 L 482.9829400397357 488.536393970355 L 483.4195279140698 489.08040052170804 L 483.85611578840394 489.6189883790076 L 484.29270366273806 490.1521880750396 L 484.72929153707213 490.68003033180617 L 485.1658794114063 491.2025460537009 L 485.6024672857404 491.7197663207377 L 486.03905516007444 492.2317223818359 L 486.4756430344086 492.73844564816164 L 486.9122309087427 493.23996768652586 L 487.3488187830768 493.7363202128404 L 487.78540665741093 494.2275350856314 L 488.221994531745 494.7136442996134 L 488.6585824060792 495.1946799793212 L 489.09517028041324 495.67067437280264 L 489.5317581547474 496.1416598453724 L 489.9683460290815 496.6076688734262 L 490.40493390341555 497.06873403831776 L 490.8415217777497 497.52488802029734 L 491.2781096520838 497.9761635925129 L 491.7146975264179 498.42259361507536 L 492.15128540075204 498.8642110291864 L 492.5878732750861 499.3010488513312 L 493.0244611494203 499.7331401675352 L 493.46104902375436 500.16051812768546 L 493.89763689808854 500.58321593991775 L 494.33422477242254 501.0012668650685 L 494.77081264675667 501.41470421119334 L 495.2074005210908 501.8235613281508 L 495.6439883954249 502.22787160225266 L 496.08057626975904 502.6276684509817 L 496.51716414409316 503.02298531777456 L 496.9537520184272 503.4138556668736 L 497.3903398927614 503.80031297824416 L 497.8269277670954 504.1823907425606 L 498.2635156414296 504.56012245625874 L 498.70010351576366 504.93354161665667 L 499.1366913900978 505.3026817171431 L 499.5732792644319 505.6675762424336 L 500.009867138766 506.028258663894 L 500.44645501310015 506.3847624349335 L 500.88304288743427 506.73712098646365 L 501.3196307617683 507.085367722427 L 501.75621863610246 507.42953601539307 L 502.1928065104365 507.7696592022219 L 502.6293943847707 508.1057705797968 L 503.06598225910477 508.4379034008237 L 503.5025701334389 508.76609086969927 L 503.939158007773 509.09036613844626 L 504.37574588210714 509.4107623027169 L 504.81233375644126 509.72731239786344 L 505.2489216307753 510.0400493950767 L 505.6855095051095 510.3490061975914 L 506.1220973794436 510.6542156369586 L 506.55868525377764 510.95571046938574 L 506.99527312811176 511.2535233721427 L 507.4318610024459 511.54768694003457 L 507.86844887678 511.8382336819416 L 508.30503675111413 512.1251960174237 L 508.7416246254482 512.4086062733927 L 509.1782124997824 512.6884966808484 L 509.61480037411644 512.9648993716817 L 510.0513882484506 513.2378463755412 L 510.48797612278463 513.5073696167657 L 510.92456399711875 513.7735009113813 L 511.3611518714529 514.0362719641615 L 511.797739745787 514.2957143657524 L 512.2343276201211 514.5518595898604 L 512.6709154944552 514.8047389905041 L 513.1075033687894 515.0543837993282 L 513.5440912431235 515.30082512298 L 513.9806791174575 515.5440939405479 L 514.4172669917916 515.7842211010625 L 514.8538548661257 516.0212373210568 L 515.2904427404599 516.25517318219 L 515.727030614794 516.4860591289294 L 516.1636184891281 516.7139254662935 L 516.6002063634622 516.9388023576549 L 517.0367942377964 517.160719822601 L 517.4733821121304 517.3797077348551 L 517.9099699864646 517.5957958202542 L 518.3465578607986 517.809013654786 L 518.7831457351328 518.0193906626814 L 519.2197336094669 518.2269561145658 L 519.656321483801 518.4317391256652 L 520.0929093581351 518.6337686540688 L 520.5294972324692 518.8330734990467 L 520.9660851068033 519.0296822994226 L 521.4026729811375 519.2236235320007 L 521.8392608554715 519.4149255100464 L 522.2758487298056 519.6036163818203 L 522.7124366041397 519.7897241291648 L 523.1490244784738 519.9732765661429 L 523.585612352808 520.1543013377292 L 524.0222002271421 520.3328259185512 L 524.4587881014762 520.5088776116814 L 524.8953759758103 520.6824835474806 L 525.3319638501445 520.8536706824884 L 525.7685517244786 521.0224657983647 L 526.2051395988126 521.1888955008785 L 526.6417274731468 521.3529862189453 L 527.0783153474808 521.51476420371 L 527.514903221815 521.6742555276791 L 527.9514910961491 521.8314860838964 L 528.3880789704832 521.9864815851658 L 528.8246668448173 522.1392675633191 L 529.2612547191513 522.2898693685268 L 529.6978425934856 522.4383121686537 L 530.1344304678196 522.5846209486585 L 530.5710183421537 522.7288205100339 L 531.0076062164878 522.8709354702904 L 531.444194090822 523.0109902624813 L 531.8807819651561 523.1490091347681 L 532.3173698394902 523.2850161500262 L 532.7539577138243 523.4190351854909 L 533.1905455881584 523.5510899324422 L 533.6271334624926 523.6812038959279 L 534.0637213368267 523.8094003945243 L 534.5003092111607 523.9357025601362 L 534.9368970854948 524.0601333378304 L 535.3734849598289 524.1827154857086 L 535.8100728341631 524.3034715748144 L 536.2466607084972 524.4224239890746 L 536.6832485828313 524.5395949252768 L 537.1198364571653 524.655006393079 L 537.5564243314996 524.7686802150545 L 537.9930122058336 524.8806380267669 L 538.4296000801678 524.9909012768799 L 538.8661879545018 525.0994912272967 L 539.302775828836 525.2064289533316 L 539.73936370317 525.3117353439113 L 540.1759515775042 525.4154311018062 L 540.6125394518383 525.5175367438915 L 541.0491273261724 525.6180726014359 L 541.4857152005065 525.7170588204197 L 541.9223030748406 525.8145153618799 L 542.3588909491747 525.9104620022822 L 542.7954788235088 526.0049183339198 L 543.2320666978429 526.0979037653381 L 543.668654572177 526.1894375217845 L 544.1052424465112 526.2795386456837 L 544.5418303208453 526.3682259971366 L 544.9784181951794 526.4555182544434 L 545.4150060695135 526.5414339146498 L 545.8515939438477 526.6259912941161 L 546.2881818181818 526.7092085291085" stroke-miterlimit="10" stroke-width="8" stroke-opacity="0.7"/></g></g><g><g/><g><path fill="darkgrey" stroke="#e5e5e5" paint-order="fill stroke markers" d=" M 488 272.20000000000005 L 560 272.20000000000005 L 560 312.20000000000005 L 488 312.20000000000005 L 488 272.20000000000005 Z" fill-opacity="0.95" stroke-miterlimit="10" stroke-opacity="0.5"/><text fill="#444444" stroke="none" font-family="helvetica" font-size="10pt" font-style="normal" font-weight="normal" text-decoration="normal" x="523" y="292.20000000000005" text-anchor="start" dominant-baseline="central">PDF</text><g><path fill="none" stroke="#D95B43" paint-order="fill stroke markers" d=" M 498 292.20000000000005 L 518 292.20000000000005" stroke-miterlimit="10" stroke-width="8" stroke-opacity="0.7"/></g></g></g><g><g fill="#444444"><path fill="none" stroke="black" paint-order="fill stroke markers" d=" M 48 555 L 570 555" stroke-miterlimit="10"/><path fill="none" stroke="black" paint-order="fill stroke markers" d=" M 110 561 L 110 553" stroke-miterlimit="10"/><path fill="none" stroke="black" paint-order="fill stroke markers" d=" M 183 561 L 183 553" stroke-miterlimit="10"/><path fill="none" stroke="black" paint-order="fill stroke markers" d=" M 256 561 L 256 553" stroke-miterlimit="10"/><path fill="none" stroke="black" paint-order="fill stroke markers" d=" M 328 561 L 328 553" stroke-miterlimit="10"/><path fill="none" stroke="black" paint-order="fill stroke markers" d=" M 401 561 L 401 553" stroke-miterlimit="10"/><path fill="none" stroke="black" paint-order="fill stroke markers" d=" M 474 561 L 474 553" stroke-miterlimit="10"/><path fill="none" stroke="black" paint-order="fill stroke markers" d=" M 546 561 L 546 553" stroke-miterlimit="10"/><path fill="none" stroke="black" paint-order="fill stroke markers" d=" M 96 559 L 96 555" stroke-miterlimit="10"/><path fill="none" stroke="black" paint-order="fill stroke markers" d=" M 81 559 L 81 555" stroke-miterlimit="10"/><path fill="none" stroke="black" paint-order="fill stroke markers" d=" M 67 559 L 67 555" stroke-miterlimit="10"/><path fill="none" stroke="black" paint-order="fill stroke markers" d=" M 52 559 L 52 555" stroke-miterlimit="10"/><path fill="none" stroke="black" paint-order="fill stroke markers" d=" M 110 559 L 110 555" stroke-miterlimit="10"/><path fill="none" stroke="black" paint-order="fill stroke markers" d=" M 125 559 L 125 555" stroke-miterlimit="10"/><path fill="none" stroke="black" paint-order="fill stroke markers" d=" M 139 559 L 139 555" stroke-miterlimit="10"/><path fill="none" stroke="black" paint-order="fill stroke markers" d=" M 154 559 L 154 555" stroke-miterlimit="10"/><path fill="none" stroke="black" paint-order="fill stroke markers" d=" M 168 559 L 168 555" stroke-miterlimit="10"/><path fill="none" stroke="black" paint-order="fill stroke markers" d=" M 183 559 L 183 555" stroke-miterlimit="10"/><path fill="none" stroke="black" paint-order="fill stroke markers" d=" M 197 559 L 197 555" stroke-miterlimit="10"/><path fill="none" stroke="black" paint-order="fill stroke markers" d=" M 212 559 L 212 555" stroke-miterlimit="10"/><path fill="none" stroke="black" paint-order="fill stroke markers" d=" M 226 559 L 226 555" stroke-miterlimit="10"/><path fill="none" stroke="black" paint-order="fill stroke markers" d=" M 241 559 L 241 555" stroke-miterlimit="10"/><path fill="none" stroke="black" paint-order="fill stroke markers" d=" M 256 559 L 256 555" stroke-miterlimit="10"/><path fill="none" stroke="black" paint-order="fill stroke markers" d=" M 270 559 L 270 555" stroke-miterlimit="10"/><path fill="none" stroke="black" paint-order="fill stroke markers" d=" M 285 559 L 285 555" stroke-miterlimit="10"/><path fill="none" stroke="black" paint-order="fill stroke markers" d=" M 299 559 L 299 555" stroke-miterlimit="10"/><path fill="none" stroke="black" paint-order="fill stroke markers" d=" M 314 559 L 314 555" stroke-miterlimit="10"/><path fill="none" stroke="black" paint-order="fill stroke markers" d=" M 328 559 L 328 555" stroke-miterlimit="10"/><path fill="none" stroke="black" paint-order="fill stroke markers" d=" M 343 559 L 343 555" stroke-miterlimit="10"/><path fill="none" stroke="black" paint-order="fill stroke markers" d=" M 357 559 L 357 555" stroke-miterlimit="10"/><path fill="none" stroke="black" paint-order="fill stroke markers" d=" M 372 559 L 372 555" stroke-miterlimit="10"/><path fill="none" stroke="black" paint-order="fill stroke markers" d=" M 386 559 L 386 555" stroke-miterlimit="10"/><path fill="none" stroke="black" paint-order="fill stroke markers" d=" M 401 559 L 401 555" stroke-miterlimit="10"/><path fill="none" stroke="black" paint-order="fill stroke markers" d=" M 415 559 L 415 555" stroke-miterlimit="10"/><path fill="none" stroke="black" paint-order="fill stroke markers" d=" M 430 559 L 430 555" stroke-miterlimit="10"/><path fill="none" stroke="black" paint-order="fill stroke markers" d=" M 445 559 L 445 555" stroke-miterlimit="10"/><path fill="none" stroke="black" paint-order="fill stroke markers" d=" M 459 559 L 459 555" stroke-miterlimit="10"/><path fill="none" stroke="black" paint-order="fill stroke markers" d=" M 474 559 L 474 555" stroke-miterlimit="10"/><path fill="none" stroke="black" paint-order="fill stroke markers" d=" M 488 559 L 488 555" stroke-miterlimit="10"/><path fill="none" stroke="black" paint-order="fill stroke markers" d=" M 503 559 L 503 555" stroke-miterlimit="10"/><path fill="none" stroke="black" paint-order="fill stroke markers" d=" M 517 559 L 517 555" stroke-miterlimit="10"/><path fill="none" stroke="black" paint-order="fill stroke markers" d=" M 532 559 L 532 555" stroke-miterlimit="10"/><path fill="none" stroke="black" paint-order="fill stroke markers" d=" M 546 559 L 546 555" stroke-miterlimit="10"/><path fill="" stroke="black" paint-order="fill stroke markers" d=" M 561 559 L 561 555" stroke-miterlimit="10"/><g transform="translate(110,566) rotate(0,0,0)"><text fill="" stroke="none" font-family="helvetica" font-size="8pt" font-style="normal" font-weight="normal" text-decoration="normal" x="0" y="0" text-anchor="middle" dominant-baseline="hanging">-3</text><g transform="rotate(0,0,0) translate(-110,-566) translate(183,566) rotate(0,0,0)"><text fill="" stroke="none" font-family="helvetica" font-size="8pt" font-style="normal" font-weight="normal" text-decoration="normal" x="0" y="0" text-anchor="middle" dominant-baseline="hanging">-2</text><g transform="rotate(0,0,0) translate(-183,-566) translate(256,566) rotate(0,0,0)"><text fill="" stroke="none" font-family="helvetica" font-size="8pt" font-style="normal" font-weight="normal" text-decoration="normal" x="0" y="0" text-anchor="middle" dominant-baseline="hanging">-1</text><g transform="rotate(0,0,0) translate(-256,-566) translate(328,566) rotate(0,0,0)"><text fill="" stroke="none" font-family="helvetica" font-size="8pt" font-style="normal" font-weight="normal" text-decoration="normal" x="0" y="0" text-anchor="middle" dominant-baseline="hanging">0</text><g transform="rotate(0,0,0) translate(-328,-566) translate(401,566) rotate(0,0,0)"><text fill="" stroke="none" font-family="helvetica" font-size="8pt" font-style="normal" font-weight="normal" text-decoration="normal" x="0" y="0" text-anchor="middle" dominant-baseline="hanging">1</text><g transform="rotate(0,0,0) translate(-401,-566) translate(474,566) rotate(0,0,0)"><text fill="" stroke="none" font-family="helvetica" font-size="8pt" font-style="normal" font-weight="normal" text-decoration="normal" x="0" y="0" text-anchor="middle" dominant-baseline="hanging">2</text><g transform="rotate(0,0,0) translate(-474,-566) translate(546,566) rotate(0,0,0)"><text fill="" stroke="none" font-family="helvetica" font-size="8pt" font-style="normal" font-weight="normal" text-decoration="normal" x="0" y="0" text-anchor="middle" dominant-baseline="hanging">3</text><g transform="rotate(0,0,0) translate(-546,-566) translate(309,584) rotate(0,0,0)"><text fill="" stroke="none" font-family="helvetica" font-size="10pt" font-style="italic" font-weight="normal" text-decoration="normal" x="0" y="0" text-anchor="middle" dominant-baseline="hanging">x</text><g transform="rotate(0,0,0) translate(-309,-584)"/></g></g></g></g></g></g></g></g></g><g fill="#444444"><path fill="none" stroke="black" paint-order="fill stroke markers" d=" M 48 555 L 48 29" stroke-miterlimit="10"/><path fill="none" stroke="black" paint-order="fill stroke markers" d=" M 42 531 L 50 531" stroke-miterlimit="10"/><path fill="none" stroke="black" paint-order="fill stroke markers" d=" M 42 428 L 50 428" stroke-miterlimit="10"/><path fill="none" stroke="black" paint-order="fill stroke markers" d=" M 42 325 L 50 325" stroke-miterlimit="10"/><path fill="none" stroke="black" paint-order="fill stroke markers" d=" M 42 221 L 50 221" stroke-miterlimit="10"/><path fill="none" stroke="black" paint-order="fill stroke markers" d=" M 42 118 L 50 118" stroke-miterlimit="10"/><path fill="none" stroke="black" paint-order="fill stroke markers" d=" M 44 552 L 48 552" stroke-miterlimit="10"/><path fill="none" stroke="black" paint-order="fill stroke markers" d=" M 44 531 L 48 531" stroke-miterlimit="10"/><path fill="none" stroke="black" paint-order="fill stroke markers" d=" M 44 511 L 48 511" stroke-miterlimit="10"/><path fill="none" stroke="black" paint-order="fill stroke markers" d=" M 44 490 L 48 490" stroke-miterlimit="10"/><path fill="none" stroke="black" paint-order="fill stroke markers" d=" M 44 469 L 48 469" stroke-miterlimit="10"/><path fill="none" stroke="black" paint-order="fill stroke markers" d=" M 44 449 L 48 449" stroke-miterlimit="10"/><path fill="none" stroke="black" paint-order="fill stroke markers" d=" M 44 428 L 48 428" stroke-miterlimit="10"/><path fill="none" stroke="black" paint-order="fill stroke markers" d=" M 44 407 L 48 407" stroke-miterlimit="10"/><path fill="none" stroke="black" paint-order="fill stroke markers" d=" M 44 387 L 48 387" stroke-miterlimit="10"/><path fill="none" stroke="black" paint-order="fill stroke markers" d=" M 44 366 L 48 366" stroke-miterlimit="10"/><path fill="none" stroke="black" paint-order="fill stroke markers" d=" M 44 345 L 48 345" stroke-miterlimit="10"/><path fill="none" stroke="black" paint-order="fill stroke markers" d=" M 44 325 L 48 325" stroke-miterlimit="10"/><path fill="none" stroke="black" paint-order="fill stroke markers" d=" M 44 304 L 48 304" stroke-miterlimit="10"/><path fill="none" stroke="black" paint-order="fill stroke markers" d=" M 44 283 L 48 283" stroke-miterlimit="10"/><path fill="none" stroke="black" paint-order="fill stroke markers" d=" M 44 262 L 48 262" stroke-miterlimit="10"/><path fill="none" stroke="black" paint-order="fill stroke markers" d=" M 44 242 L 48 242" stroke-miterlimit="10"/><path fill="none" stroke="black" paint-order="fill stroke markers" d=" M 44 221 L 48 221" stroke-miterlimit="10"/><path fill="none" stroke="black" paint-order="fill stroke markers" d=" M 44 200 L 48 200" stroke-miterlimit="10"/><path fill="none" stroke="black" paint-order="fill stroke markers" d=" M 44 180 L 48 180" stroke-miterlimit="10"/><path fill="none" stroke="black" paint-order="fill stroke markers" d=" M 44 159 L 48 159" stroke-miterlimit="10"/><path fill="none" stroke="black" paint-order="fill stroke markers" d=" M 44 138 L 48 138" stroke-miterlimit="10"/><path fill="none" stroke="black" paint-order="fill stroke markers" d=" M 44 118 L 48 118" stroke-miterlimit="10"/><path fill="none" stroke="black" paint-order="fill stroke markers" d=" M 44 97 L 48 97" stroke-miterlimit="10"/><path fill="none" stroke="black" paint-order="fill stroke markers" d=" M 44 76 L 48 76" stroke-miterlimit="10"/><path fill="none" stroke="black" paint-order="fill stroke markers" d=" M 44 56 L 48 56" stroke-miterlimit="10"/><path fill="" stroke="black" paint-order="fill stroke markers" d=" M 44 35 L 48 35" stroke-miterlimit="10"/><g transform="translate(37,531) rotate(0,0,0)"><text fill="" stroke="none" font-family="helvetica" font-size="8pt" font-style="normal" font-weight="normal" text-decoration="normal" x="0" y="0" text-anchor="end" dominant-baseline="central">0</text><g transform="rotate(0,0,0) translate(-37,-531) translate(37,428) rotate(0,0,0)"><text fill="" stroke="none" font-family="helvetica" font-size="8pt" font-style="normal" font-weight="normal" text-decoration="normal" x="0" y="0" text-anchor="end" dominant-baseline="central">0.1</text><g transform="rotate(0,0,0) translate(-37,-428) translate(37,325) rotate(0,0,0)"><text fill="" stroke="none" font-family="helvetica" font-size="8pt" font-style="normal" font-weight="normal" text-decoration="normal" x="0" y="0" text-anchor="end" dominant-baseline="central">0.2</text><g transform="rotate(0,0,0) translate(-37,-325) translate(37,221) rotate(0,0,0)"><text fill="" stroke="none" font-family="helvetica" font-size="8pt" font-style="normal" font-weight="normal" text-decoration="normal" x="0" y="0" text-anchor="end" dominant-baseline="central">0.3</text><g transform="rotate(0,0,0) translate(-37,-221) translate(37,118) rotate(0,0,0)"><text fill="" stroke="none" font-family="helvetica" font-size="8pt" font-style="normal" font-weight="normal" text-decoration="normal" x="0" y="0" text-anchor="end" dominant-baseline="central">0.4</text><g transform="rotate(0,0,0) translate(-37,-118) translate(16,292) rotate(-90,0,0)"><text fill="" stroke="none" font-family="helvetica" font-size="10pt" font-style="italic" font-weight="normal" text-decoration="normal" x="0" y="0" text-anchor="middle" dominant-baseline="alphabetic">Pr(x)</text><g transform="rotate(90,0,0) translate(-16,-292)"/></g></g></g></g></g></g></g><g fill="#444444"><path fill="" stroke="none" d=""/><g transform="translate(48.34,10)"><path fill="none" stroke="none"/><text fill="" stroke="none" font-family="helvetica" font-size="10pt" font-style="normal" font-weight="bold" text-decoration="normal" x="0" y="0" text-anchor="start" dominant-baseline="text-before-edge">Normal Distribution (mu=0, sigma^2=1)</text></g></g></g></g></g></svg>