<svg version="1.1" xmlns="http://www.w3.org/2000/svg" xmlns:xlink="http://www.w3.org/1999/xlink" width="600" height="600" style="width: 600px; height: 600px;"><defs/><g><g/><g transform="scale(1,1) translate(0.5,0.5)"><rect fill="#FFFFFF" stroke="none" x="0" y="0" width="600" height="600"/><rect fill="#ffffff" stroke="none" x="0" y="0" width="600" height="600"/><rect fill="#FFFFFF" stroke="none" x="45.48625000000001" y="31" width="524.51375" height="519.2625"/><rect fill="#ffffff" stroke="none" x="45.48625000000001" y="31" width="524.51375" height="519.2625"/><g><rect fill="none" stroke="#e5e5e5" x="45.48625000000001" y="31" width="524.51375" height="519.2625" stroke-miterlimit="10"/></g><g><g><path fill="none" stroke="#e5e5e5" paint-order="fill stroke markers" d=" M 60 550 L 60 31" stroke-miterlimit="10"/><path fill="none" stroke="#e5e5e5" paint-order="fill stroke markers" d=" M 130 550 L 130 31" stroke-miterlimit="10"/><path fill="none" stroke="#e5e5e5" paint-order="fill stroke markers" d=" M 200 550 L 200 31" stroke-miterlimit="10"/><path fill="none" stroke="#e5e5e5" paint-order="fill stroke markers" d=" M 269 550 L 269 31" stroke-miterlimit="10"/><path fill="none" stroke="#e5e5e5" paint-order="fill stroke markers" d=" M 339 550 L 339 31" stroke-miterlimit="10"/><path fill="none" stroke="#e5e5e5" paint-order="fill stroke markers" d=" M 409 550 L 409 31" stroke-miterlimit="10"/><path fill="none" stroke="#e5e5e5" paint-order="fill stroke markers" d=" M 479 550 L 479 31" stroke-miterlimit="10"/><path fill="none" stroke="#e5e5e5" paint-order="fill stroke markers" d=" M 548 550 L 548 31" stroke-miterlimit="10"/></g><g><path fill="none" stroke="#e5e5e5" paint-order="fill stroke markers" d=" M 45 550 L 570 550" stroke-miterlimit="10"/><path fill="none" stroke="#e5e5e5" paint-order="fill stroke markers" d=" M 45 473 L 570 473" stroke-miterlimit="10"/><path fill="none" stroke="#e5e5e5" paint-order="fill stroke markers" d=" M 45 396 L 570 396" stroke-miterlimit="10"/><path fill="none" stroke="#e5e5e5" paint-order="fill stroke markers" d=" M 45 319 L 570 319" stroke-miterlimit="10"/><path fill="none" stroke="#e5e5e5" paint-order="fill stroke markers" d=" M 45 242 L 570 242" stroke-miterlimit="10"/><path fill="none" stroke="#e5e5e5" paint-order="fill stroke markers" d=" M 45 165 L 570 165" stroke-miterlimit="10"/><path fill="none" stroke="#e5e5e5" paint-order="fill stroke markers" d=" M 45 88 L 570 88" stroke-miterlimit="10"/></g><g><path fill="none" stroke="none"/><path fill="#1f77b4" stroke="#1f77b4" paint-order="fill stroke markers" d=" M 482.734936715251 341.1936165202224 A 2 2 0 1 1 482.7349357152511 341.1916165205557" stroke-miterlimit="10"/><path fill="#1f77b4" stroke="#1f77b4" paint-order="fill stroke markers" d=" M 461.01088333733 336.6114363427961 A 2 2 0 1 1 461.01088233733003 336.6094363431294" stroke-miterlimit="10"/><path fill="#1f77b4" stroke="#1f77b4" paint-order="fill stroke markers" d=" M 130.0345075127368 285.5033273661967 A 2 2 0 1 1 130.0345065127369 285.50132736653" stroke-miterlimit="10"/><path fill="#1f77b4" stroke="#1f77b4" paint-order="fill stroke markers" d=" M 120.58568640575388 267.2186363973372 A 2 2 0 1 1 120.58568540575396 267.2166363976705" stroke-miterlimit="10"/><path fill="#1f77b4" stroke="#1f77b4" paint-order="fill stroke markers" d=" M 115.13473261464503 263.1170865378043 A 2 2 0 1 1 115.13473161464512 263.11508653813763" stroke-miterlimit="10"/><path fill="#1f77b4" stroke="#1f77b4" paint-order="fill stroke markers" d=" M 532.1945883769457 488.9088273403766 A 2 2 0 1 1 532.1945873769458 488.9068273407099" stroke-miterlimit="10"/><path fill="#1f77b4" stroke="#1f77b4" paint-order="fill stroke markers" d=" M 330.01406833088765 406.8925971004745 A 2 2 0 1 1 330.0140673308877 406.89059710080784" stroke-miterlimit="10"/><path fill="#1f77b4" stroke="#1f77b4" paint-order="fill stroke markers" d=" M 524.0329451361882 474.53524220341075 A 2 2 0 1 1 524.0329441361883 474.53324220374407" stroke-miterlimit="10"/><path fill="#1f77b4" stroke="#1f77b4" paint-order="fill stroke markers" d=" M 516.1152311469419 466.22196212173105 A 2 2 0 1 1 516.115230146942 466.2199621220644" stroke-miterlimit="10"/><path fill="#1f77b4" stroke="#1f77b4" paint-order="fill stroke markers" d=" M 524.4507381360754 482.97617004004604 A 2 2 0 1 1 524.4507371360755 482.97417004037936" stroke-miterlimit="10"/><path fill="#1f77b4" stroke="#1f77b4" paint-order="fill stroke markers" d=" M 477.1312692651924 347.1289429365214 A 2 2 0 1 1 477.13126826519243 347.12694293685473" stroke-miterlimit="10"/><path fill="#1f77b4" stroke="#1f77b4" paint-order="fill stroke markers" d=" M 544.6834467676603 517.7861995378096 A 2 2 0 1 1 544.6834457676604 517.784199538143" stroke-miterlimit="10"/><path fill="#1f77b4" stroke="#1f77b4" paint-order="fill stroke markers" d=" M 533.315094639926 516.4600274941126 A 2 2 0 1 1 533.3150936399261 516.458027494446" stroke-miterlimit="10"/><path fill="#1f77b4" stroke="#1f77b4" paint-order="fill stroke markers" d=" M 533.0490006351504 507.12759906734664 A 2 2 0 1 1 533.0489996351505 507.12559906767996" stroke-miterlimit="10"/><path fill="#1f77b4" stroke="#1f77b4" paint-order="fill stroke markers" d=" M 531.7437904684166 507.8702117049972 A 2 2 0 1 1 531.7437894684167 507.8682117053305" stroke-miterlimit="10"/><path fill="#1f77b4" stroke="#1f77b4" paint-order="fill stroke markers" d=" M 548.1584659090909 526.6596590909091 A 2 2 0 1 1 548.158464909091 526.6576590912425" stroke-miterlimit="10"/><path fill="#1f77b4" stroke="#1f77b4" paint-order="fill stroke markers" d=" M 531.1087553190589 493.21061877592757 A 2 2 0 1 1 531.108754319059 493.2086187762609" stroke-miterlimit="10"/><path fill="#1f77b4" stroke="#1f77b4" paint-order="fill stroke markers" d=" M 95.14647254327275 262.02089660799567 A 2 2 0 1 1 95.14647154327284 262.018896608329" stroke-miterlimit="10"/><path fill="#1f77b4" stroke="#1f77b4" paint-order="fill stroke markers" d=" M 107.03320320139915 260.9393010854614 A 2 2 0 1 1 107.03320220139923 260.93730108579473" stroke-miterlimit="10"/><path fill="#1f77b4" stroke="#1f77b4" paint-order="fill stroke markers" d=" M 93.31709379187066 259.9912621254832 A 2 2 0 1 1 93.31709279187075 259.98926212581654" stroke-miterlimit="10"/><path fill="#1f77b4" stroke="#1f77b4" paint-order="fill stroke markers" d=" M 102.2882271371434 257.35410814895624 A 2 2 0 1 1 102.28822613714348 257.35210814928956" stroke-miterlimit="10"/><path fill="#1f77b4" stroke="#1f77b4" paint-order="fill stroke markers" d=" M 92.98436931194144 256.6490297706083 A 2 2 0 1 1 92.98436831194152 256.64702977094163" stroke-miterlimit="10"/><path fill="#1f77b4" stroke="#1f77b4" paint-order="fill stroke markers" d=" M 92.94116743890191 255.0364197789795 A 2 2 0 1 1 92.941166438902 255.03441977931283" stroke-miterlimit="10"/><path fill="#1f77b4" stroke="#1f77b4" paint-order="fill stroke markers" d=" M 111.65089649418695 282.36464241911636 A 2 2 0 1 1 111.65089549418704 282.3626424194497" stroke-miterlimit="10"/><path fill="#1f77b4" stroke="#1f77b4" paint-order="fill stroke markers" d=" M 93.7533107041287 281.3267670243417 A 2 2 0 1 1 93.75330970412878 281.324767024675" stroke-miterlimit="10"/><path fill="#1f77b4" stroke="#1f77b4" paint-order="fill stroke markers" d=" M 105.09916840314398 273.6232766429369 A 2 2 0 1 1 105.09916740314407 273.6212766432702" stroke-miterlimit="10"/><path fill="#1f77b4" stroke="#1f77b4" paint-order="fill stroke markers" d=" M 102.83324049111789 280.1381452460682 A 2 2 0 1 1 102.83323949111798 280.1361452464015" stroke-miterlimit="10"/><path fill="#1f77b4" stroke="#1f77b4" paint-order="fill stroke markers" d=" M 100.086435858187 270.72392264849304 A 2 2 0 1 1 100.08643485818709 270.72192264882636" stroke-miterlimit="10"/><path fill="#1f77b4" stroke="#1f77b4" paint-order="fill stroke markers" d=" M 103.43366232889255 268.90782206039285 A 2 2 0 1 1 103.43366132889264 268.90582206072617" stroke-miterlimit="10"/><path fill="#1f77b4" stroke="#1f77b4" paint-order="fill stroke markers" d=" M 97.5678801246523 294.7401033100956 A 2 2 0 1 1 97.56787912465239 294.7381033104289" stroke-miterlimit="10"/><path fill="#1f77b4" stroke="#1f77b4" paint-order="fill stroke markers" d=" M 90.91507176782437 292.54738315307736 A 2 2 0 1 1 90.91507076782446 292.5453831534107" stroke-miterlimit="10"/><path fill="#1f77b4" stroke="#1f77b4" paint-order="fill stroke markers" d=" M 95.55926746400729 289.8540862029151 A 2 2 0 1 1 95.55926646400738 289.8520862032484" stroke-miterlimit="10"/><path fill="#1f77b4" stroke="#1f77b4" paint-order="fill stroke markers" d=" M 94.24219470268486 287.48636401929014 A 2 2 0 1 1 94.24219370268494 287.48436401962346" stroke-miterlimit="10"/><path fill="#1f77b4" stroke="#1f77b4" paint-order="fill stroke markers" d=" M 93.14444802917518 285.05694242078596 A 2 2 0 1 1 93.14444702917527 285.0549424211193" stroke-miterlimit="10"/><path fill="#1f77b4" stroke="#1f77b4" paint-order="fill stroke markers" d=" M 92.58678832444343 282.6451104023057 A 2 2 0 1 1 92.58678732444352 282.643110402639" stroke-miterlimit="10"/><path fill="#1f77b4" stroke="#1f77b4" paint-order="fill stroke markers" d=" M 85.62156845333206 262.62930584035144 A 2 2 0 1 1 85.62156745333215 262.62730584068476" stroke-miterlimit="10"/><path fill="#1f77b4" stroke="#1f77b4" paint-order="fill stroke markers" d=" M 84.29640089367481 261.99027926097006 A 2 2 0 1 1 84.2963998936749 261.9882792613034" stroke-miterlimit="10"/><path fill="#1f77b4" stroke="#1f77b4" paint-order="fill stroke markers" d=" M 88.36416977698246 259.9325277110644 A 2 2 0 1 1 88.36416877698255 259.9305277113977" stroke-miterlimit="10"/><path fill="#1f77b4" stroke="#1f77b4" paint-order="fill stroke markers" d=" M 79.40331819567712 255.02381758832735 A 2 2 0 1 1 79.4033171956772 255.02181758866067" stroke-miterlimit="10"/><path fill="#1f77b4" stroke="#1f77b4" paint-order="fill stroke markers" d=" M 89.22548229387772 256.8787033062109 A 2 2 0 1 1 89.2254812938778 256.87670330654424" stroke-miterlimit="10"/><path fill="#1f77b4" stroke="#1f77b4" paint-order="fill stroke markers" d=" M 80.42733179605773 258.6809905109664 A 2 2 0 1 1 80.42733079605782 258.67899051129973" stroke-miterlimit="10"/><path fill="#1f77b4" stroke="#1f77b4" paint-order="fill stroke markers" d=" M 84.69038866355001 267.6880157247859 A 2 2 0 1 1 84.6903876635501 267.6860157251192" stroke-miterlimit="10"/><path fill="#1f77b4" stroke="#1f77b4" paint-order="fill stroke markers" d=" M 89.95972679892188 266.9823101001655 A 2 2 0 1 1 89.95972579892197 266.9803101004988" stroke-miterlimit="10"/><path fill="#1f77b4" stroke="#1f77b4" paint-order="fill stroke markers" d=" M 71.32778409090909 266.713851122541 A 2 2 0 1 1 71.32778309090918 266.7118511228743" stroke-miterlimit="10"/><path fill="#1f77b4" stroke="#1f77b4" paint-order="fill stroke markers" d=" M 87.29470304572536 265.643690839002 A 2 2 0 1 1 87.29470204572544 265.6416908393353" stroke-miterlimit="10"/><path fill="#1f77b4" stroke="#1f77b4" paint-order="fill stroke markers" d=" M 86.13535265338234 264.258790522907 A 2 2 0 1 1 86.13535165338243 264.25679052324034" stroke-miterlimit="10"/><path fill="#1f77b4" stroke="#1f77b4" paint-order="fill stroke markers" d=" M 83.197266434612 263.73729327298685 A 2 2 0 1 1 83.19726543461209 263.73529327332017" stroke-miterlimit="10"/><path fill="#1f77b4" stroke="#1f77b4" paint-order="fill stroke markers" d=" M 86.81548336005326 277.96900503019816 A 2 2 0 1 1 86.81548236005335 277.9670050305315" stroke-miterlimit="10"/><path fill="#1f77b4" stroke="#1f77b4" paint-order="fill stroke markers" d=" M 85.52890466806483 287.95755214776153 A 2 2 0 1 1 85.52890366806491 287.95555214809485" stroke-miterlimit="10"/><path fill="#1f77b4" stroke="#1f77b4" paint-order="fill stroke markers" d=" M 84.98004405693814 286.97289574188665 A 2 2 0 1 1 84.98004305693823 286.97089574221997" stroke-miterlimit="10"/><path fill="#1f77b4" stroke="#1f77b4" paint-order="fill stroke markers" d=" M 74.73651357564358 274.145532296184 A 2 2 0 1 1 74.73651257564367 274.1435322965173" stroke-miterlimit="10"/><path fill="#1f77b4" stroke="#1f77b4" paint-order="fill stroke markers" d=" M 84.32183051367502 267.7921013712379 A 2 2 0 1 1 84.32182951367511 267.7901013715712" stroke-miterlimit="10"/><path fill="#1f77b4" stroke="#1f77b4" paint-order="fill stroke markers" d=" M 75.59784724155793 270.9304347362529 A 2 2 0 1 1 75.59784624155802 270.9284347365862" stroke-miterlimit="10"/><path fill="#1f77b4" stroke="#1f77b4" paint-order="fill stroke markers" d=" M 408.78953775640656 73.76331635957104 A 2 2 0 1 1 408.7895367564066 73.76131635990437" stroke-miterlimit="10"/><path fill="#1f77b4" stroke="#1f77b4" paint-order="fill stroke markers" d=" M 422.4636976314147 64.8827022869541 A 2 2 0 1 1 422.46369663141473 64.88070228728743" stroke-miterlimit="10"/><path fill="#1f77b4" stroke="#1f77b4" paint-order="fill stroke markers" d=" M 413.64703845251245 56.769885819388264 A 2 2 0 1 1 413.6470374525125 56.7678858197216" stroke-miterlimit="10"/><path fill="#1f77b4" stroke="#1f77b4" paint-order="fill stroke markers" d=" M 441.62506835948057 54.6028409090909 A 2 2 0 1 1 441.6250673594806 54.600840909424235" stroke-miterlimit="10"/><path fill="#1f77b4" stroke="#1f77b4" paint-order="fill stroke markers" d=" M 409.95182629981304 140.40364783407654 A 2 2 0 1 1 409.9518252998131 140.40164783440986" stroke-miterlimit="10"/><path fill="#1f77b4" stroke="#1f77b4" paint-order="fill stroke markers" d=" M 417.7857875790701 116.83495780610457 A 2 2 0 1 1 417.78578657907013 116.8329578064379" stroke-miterlimit="10"/><path fill="#1f77b4" stroke="#1f77b4" paint-order="fill stroke markers" d=" M 404.35768297877195 115.2758113896765 A 2 2 0 1 1 404.357681978772 115.27381139000984" stroke-miterlimit="10"/><path fill="#1f77b4" stroke="#1f77b4" paint-order="fill stroke markers" d=" M 410.2100876328551 102.27140483526989 A 2 2 0 1 1 410.21008663285517 102.26940483560323" stroke-miterlimit="10"/><path fill="#1f77b4" stroke="#1f77b4" paint-order="fill stroke markers" d=" M 415.5046756226213 97.48288763801492 A 2 2 0 1 1 415.50467462262134 97.48088763834825" stroke-miterlimit="10"/><path fill="#1f77b4" stroke="#1f77b4" paint-order="fill stroke markers" d=" M 420.0619422897985 84.70203251372618 A 2 2 0 1 1 420.06194128979854 84.70003251405952" stroke-miterlimit="10"/><path fill="#1f77b4" stroke="#1f77b4" paint-order="fill stroke markers" d=" M 412.6255440269023 151.33894325887923 A 2 2 0 1 1 412.62554302690233 151.33694325921255" stroke-miterlimit="10"/><path fill="#1f77b4" stroke="#1f77b4" paint-order="fill stroke markers" d=" M 406.52294160507233 151.60794342142788 A 2 2 0 1 1 406.5229406050724 151.6059434217612" stroke-miterlimit="10"/><path fill="#1f77b4" stroke="#1f77b4" paint-order="fill stroke markers" d=" M 427.8646420787094 157.2696140367891 A 2 2 0 1 1 427.86464107870944 157.26761403712243" stroke-miterlimit="10"/><path fill="#1f77b4" stroke="#1f77b4" paint-order="fill stroke markers" d=" M 422.9714299341355 156.91256500746556 A 2 2 0 1 1 422.97142893413553 156.91056500779888" stroke-miterlimit="10"/><path fill="#1f77b4" stroke="#1f77b4" paint-order="fill stroke markers" d=" M 419.00663230022076 142.99412828543495 A 2 2 0 1 1 419.0066313002208 142.99212828576827" stroke-miterlimit="10"/><path fill="#1f77b4" stroke="#1f77b4" paint-order="fill stroke markers" d=" M 417.97509126650624 140.87276103580461 A 2 2 0 1 1 417.9750902665063 140.87076103613794" stroke-miterlimit="10"/><path fill="#1f77b4" stroke="#1f77b4" paint-order="fill stroke markers" d=" M 396.42938185722863 140.00323487149274 A 2 2 0 1 1 396.4293808572287 140.00123487182606" stroke-miterlimit="10"/><path fill="#1f77b4" stroke="#1f77b4" paint-order="fill stroke markers" d=" M 387.1709554907579 137.1304733405533 A 2 2 0 1 1 387.17095449075794 137.12847334088661" stroke-miterlimit="10"/><path fill="#1f77b4" stroke="#1f77b4" paint-order="fill stroke markers" d=" M 399.53216653205135 132.4940217880088 A 2 2 0 1 1 399.5321655320514 132.49202178834213" stroke-miterlimit="10"/><path fill="#1f77b4" stroke="#1f77b4" paint-order="fill stroke markers" d=" M 401.6656405406659 131.31845825423682 A 2 2 0 1 1 401.66563954066595 131.31645825457014" stroke-miterlimit="10"/><path fill="#1f77b4" stroke="#1f77b4" paint-order="fill stroke markers" d=" M 401.9911173788902 117.02377458318693 A 2 2 0 1 1 401.99111637889024 117.02177458352027" stroke-miterlimit="10"/><path fill="#1f77b4" stroke="#1f77b4" paint-order="fill stroke markers" d=" M 403.14458416393387 101.81719384315045 A 2 2 0 1 1 403.14458316393393 101.81519384348378" stroke-miterlimit="10"/><path fill="#1f77b4" stroke="#1f77b4" paint-order="fill stroke markers" d=" M 391.7655875614065 164.87092580504452 A 2 2 0 1 1 391.76558656140656 164.86892580537784" stroke-miterlimit="10"/><path fill="#1f77b4" stroke="#1f77b4" paint-order="fill stroke markers" d=" M 401.1582158352296 150.15772785530567 A 2 2 0 1 1 401.15821483522967 150.155727855639" stroke-miterlimit="10"/><path fill="#1f77b4" stroke="#1f77b4" paint-order="fill stroke markers" d=" M 397.97292734519414 147.4414588101427 A 2 2 0 1 1 397.9729263451942 147.43945881047603" stroke-miterlimit="10"/><path fill="#1f77b4" stroke="#1f77b4" paint-order="fill stroke markers" d=" M 395.974948186858 146.3056211634476 A 2 2 0 1 1 395.97494718685806 146.30362116378092" stroke-miterlimit="10"/><path fill="#1f77b4" stroke="#1f77b4" paint-order="fill stroke markers" d=" M 390.18708475846034 146.87245485395545 A 2 2 0 1 1 390.1870837584604 146.87045485428877" stroke-miterlimit="10"/><path fill="#1f77b4" stroke="#1f77b4" paint-order="fill stroke markers" d=" M 397.0695493732954 145.03529403158177 A 2 2 0 1 1 397.06954837329545 145.0332940319151" stroke-miterlimit="10"/><path fill="#1f77b4" stroke="#1f77b4" paint-order="fill stroke markers" d=" M 399.83810687976427 180.1120387951076 A 2 2 0 1 1 399.8381058797643 180.11003879544091" stroke-miterlimit="10"/><path fill="#1f77b4" stroke="#1f77b4" paint-order="fill stroke markers" d=" M 389.9804264748302 173.3331826581089 A 2 2 0 1 1 389.98042547483027 173.33118265844223" stroke-miterlimit="10"/><path fill="#1f77b4" stroke="#1f77b4" paint-order="fill stroke markers" d=" M 394.1213705120506 186.68397481651186 A 2 2 0 1 1 394.12136951205065 186.68197481684518" stroke-miterlimit="10"/><path fill="#1f77b4" stroke="#1f77b4" paint-order="fill stroke markers" d=" M 394.4782666447893 177.62046710427575 A 2 2 0 1 1 394.47826564478936 177.61846710460907" stroke-miterlimit="10"/><path fill="#1f77b4" stroke="#1f77b4" paint-order="fill stroke markers" d=" M 395.52993939367786 172.21974509391993 A 2 2 0 1 1 395.5299383936779 172.21774509425325" stroke-miterlimit="10"/><path fill="#1f77b4" stroke="#1f77b4" paint-order="fill stroke markers" d=" M 393.260160883449 171.97770458526588 A 2 2 0 1 1 393.26015988344903 171.9757045855992" stroke-miterlimit="10"/><path fill="#1f77b4" stroke="#1f77b4" paint-order="fill stroke markers" d=" M 245.40170872090488 211.02860571956796 A 2 2 0 1 1 245.40170772090497 211.02660571990128" stroke-miterlimit="10"/><path fill="#1f77b4" stroke="#1f77b4" paint-order="fill stroke markers" d=" M 236.67540253155 204.54174321062533 A 2 2 0 1 1 236.67540153155008 204.53974321095865" stroke-miterlimit="10"/><path fill="#1f77b4" stroke="#1f77b4" paint-order="fill stroke markers" d=" M 237.15412979621965 195.73491414135452 A 2 2 0 1 1 237.15412879621974 195.73291414168784" stroke-miterlimit="10"/><path fill="#1f77b4" stroke="#1f77b4" paint-order="fill stroke markers" d=" M 386.5085039312254 144.85211459865872 A 2 2 0 1 1 386.50850293122545 144.85011459899204" stroke-miterlimit="10"/><path fill="#1f77b4" stroke="#1f77b4" paint-order="fill stroke markers" d=" M 385.1321670674526 152.96671522372816 A 2 2 0 1 1 385.13216606745266 152.96471522406148" stroke-miterlimit="10"/><path fill="#1f77b4" stroke="#1f77b4" paint-order="fill stroke markers" d=" M 385.0327636849792 159.83836873348548 A 2 2 0 1 1 385.0327626849793 159.8363687338188" stroke-miterlimit="10"/><path fill="#1f77b4" stroke="#1f77b4" paint-order="fill stroke markers" d=" M 253.32265724023313 236.14778959872098 A 2 2 0 1 1 253.32265624023321 236.1457895990543" stroke-miterlimit="10"/><path fill="#1f77b4" stroke="#1f77b4" paint-order="fill stroke markers" d=" M 227.08004994531439 224.17634250057586 A 2 2 0 1 1 227.08004894531447 224.17434250090918" stroke-miterlimit="10"/><path fill="#1f77b4" stroke="#1f77b4" paint-order="fill stroke markers" d=" M 217.37080646937395 226.9378874716926 A 2 2 0 1 1 217.37080546937403 226.9358874720259" stroke-miterlimit="10"/><path fill="#1f77b4" stroke="#1f77b4" paint-order="fill stroke markers" d=" M 267.3888509053204 215.54609652830982 A 2 2 0 1 1 267.38884990532046 215.54409652864314" stroke-miterlimit="10"/><path fill="#1f77b4" stroke="#1f77b4" paint-order="fill stroke markers" d=" M 237.64551318023382 213.7771131638301 A 2 2 0 1 1 237.6455121802339 213.77511316416343" stroke-miterlimit="10"/><path fill="#1f77b4" stroke="#1f77b4" paint-order="fill stroke markers" d=" M 218.52064682386475 212.38954289908446 A 2 2 0 1 1 218.52064582386484 212.38754289941778" stroke-miterlimit="10"/><path fill="#1f77b4" stroke="#1f77b4" paint-order="fill stroke markers" d=" M 98.89051621809529 253.65037494416094 A 2 2 0 1 1 98.89051521809537 253.64837494449426" stroke-miterlimit="10"/><path fill="#1f77b4" stroke="#1f77b4" paint-order="fill stroke markers" d=" M 89.89957234189083 253.52442911650184 A 2 2 0 1 1 89.89957134189092 253.52242911683516" stroke-miterlimit="10"/><path fill="#1f77b4" stroke="#1f77b4" paint-order="fill stroke markers" d=" M 224.80331432322026 249.03399203377433 A 2 2 0 1 1 224.80331332322035 249.03199203410765" stroke-miterlimit="10"/><path fill="#1f77b4" stroke="#1f77b4" paint-order="fill stroke markers" d=" M 80.61476287689092 253.51018938373056 A 2 2 0 1 1 80.61476187689101 253.50818938406388" stroke-miterlimit="10"/><path fill="#1f77b4" stroke="#1f77b4" paint-order="fill stroke markers" d=" M 94.14739505878117 249.95239726998693 A 2 2 0 1 1 94.14739405878126 249.95039727032025" stroke-miterlimit="10"/><path fill="#1f77b4" stroke="#1f77b4" paint-order="fill stroke markers" d=" M 95.25309103903567 246.1658317153906 A 2 2 0 1 1 95.25309003903575 246.16383171572392" stroke-miterlimit="10"/></g></g><g/><g><g><path fill="none" stroke="black" paint-order="fill stroke markers" d=" M 45 550 L 570 550" stroke-miterlimit="10"/><path fill="none" stroke="black" paint-order="fill stroke markers" d=" M 60 556 L 60 548" stroke-miterlimit="10"/><path fill="none" stroke="black" paint-order="fill stroke markers" d=" M 130 556 L 130 548" stroke-miterlimit="10"/><path fill="none" stroke="black" paint-order="fill stroke markers" d=" M 200 556 L 200 548" stroke-miterlimit="10"/><path fill="none" stroke="black" paint-order="fill stroke markers" d=" M 269 556 L 269 548" stroke-miterlimit="10"/><path fill="none" stroke="black" paint-order="fill stroke markers" d=" M 339 556 L 339 548" stroke-miterlimit="10"/><path fill="none" stroke="black" paint-order="fill stroke markers" d=" M 409 556 L 409 548" stroke-miterlimit="10"/><path fill="none" stroke="black" paint-order="fill stroke markers" d=" M 479 556 L 479 548" stroke-miterlimit="10"/><path fill="none" stroke="black" paint-order="fill stroke markers" d=" M 548 556 L 548 548" stroke-miterlimit="10"/><path fill="none" stroke="black" paint-order="fill stroke markers" d=" M 46 554 L 46 550" stroke-miterlimit="10"/><path fill="none" stroke="black" paint-order="fill stroke markers" d=" M 60 554 L 60 550" stroke-miterlimit="10"/><path fill="none" stroke="black" paint-order="fill stroke markers" d=" M 74 554 L 74 550" stroke-miterlimit="10"/><path fill="none" stroke="black" paint-order="fill stroke markers" d=" M 88 554 L 88 550" stroke-miterlimit="10"/><path fill="none" stroke="black" paint-order="fill stroke markers" d=" M 102 554 L 102 550" stroke-miterlimit="10"/><path fill="none" stroke="black" paint-order="fill stroke markers" d=" M 116 554 L 116 550" stroke-miterlimit="10"/><path fill="none" stroke="black" paint-order="fill stroke markers" d=" M 130 554 L 130 550" stroke-miterlimit="10"/><path fill="none" stroke="black" paint-order="fill stroke markers" d=" M 144 554 L 144 550" stroke-miterlimit="10"/><path fill="none" stroke="black" paint-order="fill stroke markers" d=" M 158 554 L 158 550" stroke-miterlimit="10"/><path fill="none" stroke="black" paint-order="fill stroke markers" d=" M 172 554 L 172 550" stroke-miterlimit="10"/><path fill="none" stroke="black" paint-order="fill stroke markers" d=" M 186 554 L 186 550" stroke-miterlimit="10"/><path fill="none" stroke="black" paint-order="fill stroke markers" d=" M 200 554 L 200 550" stroke-miterlimit="10"/><path fill="none" stroke="black" paint-order="fill stroke markers" d=" M 213 554 L 213 550" stroke-miterlimit="10"/><path fill="none" stroke="black" paint-order="fill stroke markers" d=" M 227 554 L 227 550" stroke-miterlimit="10"/><path fill="none" stroke="black" paint-order="fill stroke markers" d=" M 241 554 L 241 550" stroke-miterlimit="10"/><path fill="none" stroke="black" paint-order="fill stroke markers" d=" M 255 554 L 255 550" stroke-miterlimit="10"/><path fill="none" stroke="black" paint-order="fill stroke markers" d=" M 269 554 L 269 550" stroke-miterlimit="10"/><path fill="none" stroke="black" paint-order="fill stroke markers" d=" M 283 554 L 283 550" stroke-miterlimit="10"/><path fill="none" stroke="black" paint-order="fill stroke markers" d=" M 297 554 L 297 550" stroke-miterlimit="10"/><path fill="none" stroke="black" paint-order="fill stroke markers" d=" M 311 554 L 311 550" stroke-miterlimit="10"/><path fill="none" stroke="black" paint-order="fill stroke markers" d=" M 325 554 L 325 550" stroke-miterlimit="10"/><path fill="none" stroke="black" paint-order="fill stroke markers" d=" M 339 554 L 339 550" stroke-miterlimit="10"/><path fill="none" stroke="black" paint-order="fill stroke markers" d=" M 353 554 L 353 550" stroke-miterlimit="10"/><path fill="none" stroke="black" paint-order="fill stroke markers" d=" M 367 554 L 367 550" stroke-miterlimit="10"/><path fill="none" stroke="black" paint-order="fill stroke markers" d=" M 381 554 L 381 550" stroke-miterlimit="10"/><path fill="none" stroke="black" paint-order="fill stroke markers" d=" M 395 554 L 395 550" stroke-miterlimit="10"/><path fill="none" stroke="black" paint-order="fill stroke markers" d=" M 409 554 L 409 550" stroke-miterlimit="10"/><path fill="none" stroke="black" paint-order="fill stroke markers" d=" M 423 554 L 423 550" stroke-miterlimit="10"/><path fill="none" stroke="black" paint-order="fill stroke markers" d=" M 437 554 L 437 550" stroke-miterlimit="10"/><path fill="none" stroke="black" paint-order="fill stroke markers" d=" M 451 554 L 451 550" stroke-miterlimit="10"/><path fill="none" stroke="black" paint-order="fill stroke markers" d=" M 465 554 L 465 550" stroke-miterlimit="10"/><path fill="none" stroke="black" paint-order="fill stroke markers" d=" M 479 554 L 479 550" stroke-miterlimit="10"/><path fill="none" stroke="black" paint-order="fill stroke markers" d=" M 493 554 L 493 550" stroke-miterlimit="10"/><path fill="none" stroke="black" paint-order="fill stroke markers" d=" M 506 554 L 506 550" stroke-miterlimit="10"/><path fill="none" stroke="black" paint-order="fill stroke markers" d=" M 520 554 L 520 550" stroke-miterlimit="10"/><path fill="none" stroke="black" paint-order="fill stroke markers" d=" M 534 554 L 534 550" stroke-miterlimit="10"/><path fill="none" stroke="black" paint-order="fill stroke markers" d=" M 548 554 L 548 550" stroke-miterlimit="10"/><path fill="none" stroke="black" paint-order="fill stroke markers" d=" M 562 554 L 562 550" stroke-miterlimit="10"/><text fill="#444444" stroke="none" font-family="helvetica" font-size="8pt" font-style="normal" font-weight="normal" text-decoration="normal" x="60" y="561" text-anchor="middle" dominant-baseline="hanging">-3</text><text fill="#444444" stroke="none" font-family="helvetica" font-size="8pt" font-style="normal" font-weight="normal" text-decoration="normal" x="130" y="561" text-anchor="middle" dominant-baseline="hanging">-2</text><text fill="#444444" stroke="none" font-family="helvetica" font-size="8pt" font-style="normal" font-weight="normal" text-decoration="normal" x="200" y="561" text-anchor="middle" dominant-baseline="hanging">-1</text><text fill="#444444" stroke="none" font-family="helvetica" font-size="8pt" font-style="normal" font-weight="normal" text-decoration="normal" x="269" y="561" text-anchor="middle" dominant-baseline="hanging">0</text><text fill="#444444" stroke="none" font-family="helvetica" font-size="8pt" font-style="normal" font-weight="normal" text-decoration="normal" x="339" y="561" text-anchor="middle" dominant-baseline="hanging">1</text><text fill="#444444" stroke="none" font-family="helvetica" font-size="8pt" font-style="normal" font-weight="normal" text-decoration="normal" x="409" y="561" text-anchor="middle" dominant-baseline="hanging">2</text><text fill="#444444" stroke="none" font-family="helvetica" font-size="8pt" font-style="normal" font-weight="normal" text-decoration="normal" x="479" y="561" text-anchor="middle" dominant-baseline="hanging">3</text><text fill="#444444" stroke="none" font-family="helvetica" font-size="8pt" font-style="normal" font-weight="normal" text-decoration="normal" x="548" y="561" text-anchor="middle" dominant-baseline="hanging">4</text><text fill="#444444" stroke="none" font-family="helvetica" font-size="10pt" font-style="italic" font-weight="normal" text-decoration="normal" x="307.743125" y="581.2700000000001" text-anchor="middle" dominant-baseline="hanging">PC1</text></g><g><path fill="none" stroke="black" paint-order="fill stroke markers" d=" M 45 550 L 45 31" stroke-miterlimit="10"/><path fill="none" stroke="black" paint-order="fill stroke markers" d=" M 39 550 L 47 550" stroke-miterlimit="10"/><path fill="none" stroke="black" paint-order="fill stroke markers" d=" M 39 473 L 47 473" stroke-miterlimit="10"/><path fill="none" stroke="black" paint-order="fill stroke markers" d=" M 39 396 L 47 396" stroke-miterlimit="10"/><path fill="none" stroke="black" paint-order="fill stroke markers" d=" M 39 319 L 47 319" stroke-miterlimit="10"/><path fill="none" stroke="black" paint-order="fill stroke markers" d=" M 39 242 L 47 242" stroke-miterlimit="10"/><path fill="none" stroke="black" paint-order="fill stroke markers" d=" M 39 165 L 47 165" stroke-miterlimit="10"/><path fill="none" stroke="black" paint-order="fill stroke markers" d=" M 39 88 L 47 88" stroke-miterlimit="10"/><path fill="none" stroke="black" paint-order="fill stroke markers" d=" M 41 550 L 45 550" stroke-miterlimit="10"/><path fill="none" stroke="black" paint-order="fill stroke markers" d=" M 41 534 L 45 534" stroke-miterlimit="10"/><path fill="none" stroke="black" paint-order="fill stroke markers" d=" M 41 519 L 45 519" stroke-miterlimit="10"/><path fill="none" stroke="black" paint-order="fill stroke markers" d=" M 41 503 L 45 503" stroke-miterlimit="10"/><path fill="none" stroke="black" paint-order="fill stroke markers" d=" M 41 488 L 45 488" stroke-miterlimit="10"/><path fill="none" stroke="black" paint-order="fill stroke markers" d=" M 41 473 L 45 473" stroke-miterlimit="10"/><path fill="none" stroke="black" paint-order="fill stroke markers" d=" M 41 457 L 45 457" stroke-miterlimit="10"/><path fill="none" stroke="black" paint-order="fill stroke markers" d=" M 41 442 L 45 442" stroke-miterlimit="10"/><path fill="none" stroke="black" paint-order="fill stroke markers" d=" M 41 427 L 45 427" stroke-miterlimit="10"/><path fill="none" stroke="black" paint-order="fill stroke markers" d=" M 41 411 L 45 411" stroke-miterlimit="10"/><path fill="none" stroke="black" paint-order="fill stroke markers" d=" M 41 396 L 45 396" stroke-miterlimit="10"/><path fill="none" stroke="black" paint-order="fill stroke markers" d=" M 41 380 L 45 380" stroke-miterlimit="10"/><path fill="none" stroke="black" paint-order="fill stroke markers" d=" M 41 365 L 45 365" stroke-miterlimit="10"/><path fill="none" stroke="black" paint-order="fill stroke markers" d=" M 41 350 L 45 350" stroke-miterlimit="10"/><path fill="none" stroke="black" paint-order="fill stroke markers" d=" M 41 334 L 45 334" stroke-miterlimit="10"/><path fill="none" stroke="black" paint-order="fill stroke markers" d=" M 41 319 L 45 319" stroke-miterlimit="10"/><path fill="none" stroke="black" paint-order="fill stroke markers" d=" M 41 304 L 45 304" stroke-miterlimit="10"/><path fill="none" stroke="black" paint-order="fill stroke markers" d=" M 41 288 L 45 288" stroke-miterlimit="10"/><path fill="none" stroke="black" paint-order="fill stroke markers" d=" M 41 273 L 45 273" stroke-miterlimit="10"/><path fill="none" stroke="black" paint-order="fill stroke markers" d=" M 41 257 L 45 257" stroke-miterlimit="10"/><path fill="none" stroke="black" paint-order="fill stroke markers" d=" M 41 242 L 45 242" stroke-miterlimit="10"/><path fill="none" stroke="black" paint-order="fill stroke markers" d=" M 41 227 L 45 227" stroke-miterlimit="10"/><path fill="none" stroke="black" paint-order="fill stroke markers" d=" M 41 211 L 45 211" stroke-miterlimit="10"/><path fill="none" stroke="black" paint-order="fill stroke markers" d=" M 41 196 L 45 196" stroke-miterlimit="10"/><path fill="none" stroke="black" paint-order="fill stroke markers" d=" M 41 181 L 45 181" stroke-miterlimit="10"/><path fill="none" stroke="black" paint-order="fill stroke markers" d=" M 41 165 L 45 165" stroke-miterlimit="10"/><path fill="none" stroke="black" paint-order="fill stroke markers" d=" M 41 150 L 45 150" stroke-miterlimit="10"/><path fill="none" stroke="black" paint-order="fill stroke markers" d=" M 41 134 L 45 134" stroke-miterlimit="10"/><path fill="none" stroke="black" paint-order="fill stroke markers" d=" M 41 119 L 45 119" stroke-miterlimit="10"/><path fill="none" stroke="black" paint-order="fill stroke markers" d=" M 41 104 L 45 104" stroke-miterlimit="10"/><path fill="none" stroke="black" paint-order="fill stroke markers" d=" M 41 88 L 45 88" stroke-miterlimit="10"/><path fill="none" stroke="black" paint-order="fill stroke markers" d=" M 41 73 L 45 73" stroke-miterlimit="10"/><path fill="none" stroke="black" paint-order="fill stroke markers" d=" M 41 58 L 45 58" stroke-miterlimit="10"/><path fill="none" stroke="black" paint-order="fill stroke markers" d=" M 41 42 L 45 42" stroke-miterlimit="10"/><text fill="#444444" stroke="none" font-family="helvetica" font-size="8pt" font-style="normal" font-weight="normal" text-decoration="normal" x="34" y="550" text-anchor="end" dominant-baseline="central">-4</text><text fill="#444444" stroke="none" font-family="helvetica" font-size="8pt" font-style="normal" font-weight="normal" text-decoration="normal" x="34" y="473" text-anchor="end" dominant-baseline="central">-3</text><text fill="#444444" stroke="none" font-family="helvetica" font-size="8pt" font-style="normal" font-weight="normal" text-decoration="normal" x="34" y="396" text-anchor="end" dominant-baseline="central">-2</text><text fill="#444444" stroke="none" font-family="helvetica" font-size="8pt" font-style="normal" font-weight="normal" text-decoration="normal" x="34" y="319" text-anchor="end" dominant-baseline="central">-1</text><text fill="#444444" stroke="none" font-family="helvetica" font-size="8pt" font-style="normal" font-weight="normal" text-decoration="normal" x="34" y="242" text-anchor="end" dominant-baseline="central">0</text><text fill="#444444" stroke="none" font-family="helvetica" font-size="8pt" font-style="normal" font-weight="normal" text-decoration="normal" x="34" y="165" text-anchor="end" dominant-baseline="central">1</text><text fill="#444444" stroke="none" font-family="helvetica" font-size="8pt" font-style="normal" font-weight="normal" text-decoration="normal" x="34" y="88" text-anchor="end" dominant-baseline="central">2</text><g transform="translate(17.73000000000001,290.63124999999997) rotate(-90,0,0)"><text fill="#444444" stroke="none" font-family="helvetica" font-size="10pt" font-style="italic" font-weight="normal" text-decoration="normal" x="0" y="0" text-anchor="middle" dominant-baseline="alphabetic">PC2</text><g transform="rotate(90,0,0) translate(-17.73000000000001,-290.63124999999997)"/></g></g><g fill="#444444"><path fill="" stroke="none" d=""/><g transform="translate(45.48625000000001,9)"><path fill="none" stroke="none"/><text fill="" stroke="none" font-family="helvetica" font-size="10pt" font-style="normal" font-weight="bold" text-decoration="normal" x="0" y="0" text-anchor="start" dominant-baseline="text-before-edge">PCA Plot of Components PC1 x PC2</text></g></g></g></g></g></svg>